<svg width="370" height="64.269447" xmlns="http://www.w3.org/2000/svg">
  <path fill="#ffde00" d="m 0.4,34.003644 a 27.5,27.5 0 1 1 55,0 27.5,27.5 0 1 1 -55,0" />
  <path fill="#000000" d="m 68.4,34.503644 c -3.5,3.6 1.9,9 5.5,5.5 3.6,-3.6 -2,-9 -5.5,-5.5 z m 34.5,23.3 v -6.9 c 0.3,-7.7 -10.1,-9.6 -14.2,-4 v -2.7 h -7.8 v 4 H 83 l 1.6,1.6 v 7.9 l -1.6,1.6 h -7.3 l -1.6,-1.6 v -13.5 h -13 v 4 h 7.1 l 1.6,1.6 v 7.9 l -1.6,1.6 h -7.1 v 4 h 31.1 v -4 h -2.1 l -1.6,-1.6 v -5.9 c 1.6,-3.7 7.2,-6 9.6,-2.6 1,1.9 0.5,6.4 0.6,8.5 l -1.6,1.6 H 95 v 4 h 11.5 v -4 h -2.1 z m 22.5,-1.8 c -2.8,3.4 -7.1,5.4 -10.2,2.4 -1.5,-1.6 -0.9,-6.4 -1,-8.6 l 1.6,-1.6 h 8.3 v -4 h -9.9 v -6.9 h -4.3 v 6.9 h -5.6 v 4 h 4 l 1.6,1.6 v 5.3 c -0.8,10.9 13.4,11.3 18.1,3.6 z m 14.1,-12.4 c -22.7,3.4 -6,30.7 10.5,16.7 l -2.3,-2.9 c -3.9,3.7 -13.1,4.2 -14.5,-1.8 h 17.5 c 0.1,-6.5 -4.5,-12.2 -11.2,-12 z m 0,4 c 2.7,-0.1 5.4,1.8 5.9,4.5 h -12.3 c 0.8,-2.8 3.3,-4.5 6.4,-4.5 z m 30.7,-4 c -3,0 -6,1.8 -8.8,5.3 v -4.7 h -8.6 v 4 h 2.9 l 1.6,1.6 v 7.9 l -1.6,1.6 h -2.9 v 4 h 17.3 v -4 H 163 l -1.6,-1.6 v -4.1 c 4.2,-4.6 7.3,-8.1 11.3,-5.4 -4.4,-0.9 -4,6.1 0.2,5.5 7,-1.1 3.6,-11.1 -2.7,-10.1 z m 5.6,2.7 c 0,0.1 0,0.1 0,0 0,0.1 0,0.1 0,0 z m 24.2,11.5 v -6.9 c 0.3,-7.7 -10.1,-9.6 -14.2,-4 v -2.7 H 178 v 4 h 2.1 l 1.6,1.6 v 7.9 l -1.6,1.6 H 178 v 4 h 11.5 v -4 h -2.1 l -1.6,-1.6 v -5.9 c 1.6,-3.7 7.1,-6 9.6,-2.6 1,1.9 0.5,6.4 0.6,8.5 l -1.6,1.6 h -2.1 v 4 h 11.5 v -4 h -2.1 z m 28.5,0.5 c -5.8,5.4 -3.1,-5.2 -3.7,-7.7 0.4,-9.2 -17.9,-9.4 -18.8,-1.1 0.3,6.1 9.9,1.8 4.8,-1.8 2.5,-1.1 10,-0.7 9.5,3 l -9.9,3 c -13.1,4.8 -0.5,16.3 10,6.9 1.4,4.7 6.5,4.6 10,0.9 z m -7.9,-4.6 v 2.8 c -2.1,1.8 -9.2,6.3 -10.5,2 0,-1 1,-1.5 1.6,-1.6 z m 28.6,2.3 c -2.8,3.4 -7.1,5.4 -10.2,2.4 -1.5,-1.6 -0.9,-6.4 -1,-8.6 l 1.6,-1.6 h 8.3 v -4 H 238 v -6.9 h -4.3 v 6.9 h -5.6 v 4 h 4 l 1.6,1.6 v 5.3 c -0.8,10.9 13.4,11.3 18.1,3.6 z m 17.2,1.8 v -13.6 h -12.8 v 4 h 7.1 l 1.6,1.6 v 8 l -1.6,1.6 h -7.1 v 4 h 20.2 v -4 H 268 Z m -2.9,-16.6 c 5.1,0.2 5.1,-7.9 0,-7.7 -4.9,-0.1 -5,7.8 0,7.7 z m 22,2.4 c -14.4,-0.3 -14.6,20.7 0,20.4 14.5,0.3 14.5,-20.7 0,-20.4 z m 0,16.2 c -8.2,0.3 -8.1,-12.3 0,-12 8.2,-0.3 8.1,12.3 0,12 z m 33.9,-2 v -6.9 c 0.3,-7.7 -10.1,-9.6 -14.2,-4 v -2.7 h -7.8 v 4 h 2.1 l 1.6,1.6 v 7.9 l -1.6,1.6 h -2.1 v 4 h 11.5 v -4 h -2.1 l -1.6,-1.6 v -5.9 c 1.6,-3.7 7.2,-6 9.6,-2.6 1,1.9 0.5,6.4 0.6,8.5 l -1.6,1.6 h -2.1 v 4 h 11.5 v -4 H 321 Z m 27.6,0.5 c -5.8,5.4 -3.1,-5.2 -3.7,-7.7 0.4,-9.2 -17.9,-9.4 -18.8,-1.1 0.3,6.1 9.9,1.8 4.8,-1.8 2.5,-1.1 10,-0.7 9.5,3 l -9.9,3 c -13.1,4.8 -0.5,16.3 10,6.9 1.4,4.7 6.5,4.6 10,0.9 z m -7.9,-4.6 v 2.8 c -2.1,1.8 -9.2,6.3 -10.5,2 0,-1 1,-1.5 1.6,-1.6 z m 3.6,-6 c 0,0 0.1,0 0,0 0.1,0 0,0 0,0 z m 21.5,11.7 -1.6,-1.6 v -22.1 h -12.8 v 4 h 7.1 l 1.6,1.6 v 16.5 l -1.6,1.6 h -7.1 v 4 H 370 v -4 z m -296,-29.9 c 5.5,2.4 11.7,0.4 15.8,-4.4 l -2.9,-3.1 c -5,7 -16.1,4.2 -15.2,-5.1 -0.5,-11 11.7,-11.7 14.3,-3 h 3.2 v -9.7 h -4 v 1.2 l -0.8,0.3 c -15,-10.1 -24.9,17.7 -10.4,23.8 z m -5,-4.5 -0.1,-0.2 z m -0.6,-1.1 -0.1,-0.2 z m -0.5,-1.3 c 0,0 -0.1,0 0,0 -0.1,0 0,0 0,0 z m 32.8,8 c 14.4,0.3 14.6,-20.7 0,-20.4 -14.5,-0.3 -14.5,20.6 0,20.4 z m 0,-16.2 c 8.2,-0.3 8.1,12.3 0,12 -8.1,0.3 -8.1,-12.3 0,-12 z m 14.1,2 v 6.9 c -0.2,7.8 10.1,9.6 14.3,4 v 2.7 h 7.8 v -4 H 129 l -1.6,-1.6 v -13.6 h -7.8 v 4 h 2.1 l 1.6,1.6 v 5.9 c -2.1,5.2 -11,6.3 -10.2,-0.7 v -10.8 h -7.8 v 4 h 2.1 z m 40.8,9.5 h -7.1 l -1.6,-1.6 v -4.1 c 4.1,-4.6 7.5,-8.2 11.3,-5.3 -4.4,-0.9 -4,6.1 0.2,5.5 10.7,-3.4 -2,-18 -11.4,-5 v -4.7 h -8.6 v 4 h 2.9 l 1.6,1.6 v 7.9 l -1.6,1.6 h -2.9 v 4 h 17.3 z m 5.6,-13 c 0,0 0.1,0 0,0 0.1,0 0,0 0,0 z m 19.4,13 h -7.1 l -1.6,-1.6 v -4.1 c 4.1,-4.6 7.5,-8.2 11.3,-5.3 -4.4,-0.9 -4,6.1 0.2,5.5 10.7,-3.4 -2,-18 -11.4,-5 v -4.7 h -8.6 v 4 h 2.9 l 1.6,1.6 v 7.9 l -1.6,1.6 h -2.9 v 4 h 17.3 z m 27.8,0 h -5.8 l -1.6,-1.6 v -13.5 h -12.8 v 4 h 7.1 l 1.6,1.6 v 7.9 l -1.6,1.6 h -7.1 v 4 h 20.2 z m -10.3,-18.2 c 5.1,0.2 5,-7.89999997 0,-7.69999997 -4.9,-0.1 -5,7.89999997 0,7.69999997 z m 16.2,22.1 a 15,15 0 0 0 14.6,-3 l -2.3,-2.9 c -3.9,3.7 -13.1,4.2 -14.5,-1.8 h 17.5 c 0.9,-14.5 -21.6,-16 -22,-1.6 0,4.2 2.6,7.9 6.7,9.3 z m -2.2,-11.2 c 1.2,-5.7 11.1,-6 12.2,0.1 h -12.2 z m 36.1,7.3 h -7.1 l -1.6,-1.6 v -4.1 c 4.1,-4.6 7.5,-8.2 11.3,-5.3 -4.4,-0.9 -4,6.1 0.2,5.5 10.7,-3.4 -2,-18 -11.4,-5 v -4.7 h -8.6 v 4 h 2.9 l 1.6,1.6 v 7.9 l -1.6,1.6 h -2.9 v 4 h 17.3 z" />
  <path fill="#000000" d="m 27.8,6.203644 a 27.8,27.8 0 1 0 0,55.6 27.8,27.8 0 1 0 0,-55.6 z m 10.1,9.7 0.7,-0.5 h 0.2 v 0.1 l -0.2,0.2 c -0.1,0.1 -0.1,0.1 0,0.2 l 0.2,0.1 c 0.2,-0.1 0.2,0.1 0.2,0.2 l -0.1,0.2 -0.4,0.3 h -0.1 l -0.1,-0.1 -0.4,-0.5 -0.1,-0.1 z m -3.4,5.9 c 0.1,-0.1 0.1,-0.1 0.2,0 l 0.1,0.1 0.1,0.4 v 0.1 l -0.1,0.1 -0.1,0.1 0.1,0.2 0.4,0.7 0.1,0.2 -0.2,0.2 -0.5,0.4 h -0.2 l -0.1,-0.1 -0.2,-0.3 v -0.2 l 0.2,-0.1 -0.4,-0.9 -0.1,-0.2 0.1,-0.2 z m -1.7,-2.6 h 0.8 c 0.3,0 0.2,0.4 0.1,0.5 l -0.3,0.1 -0.4,-0.1 h -0.3 c -0.2,0 -0.2,-0.1 -0.2,-0.2 0,-0.2 0.1,-0.3 0.3,-0.3 z m 1,4.2 -0.1,0.2 -0.6,0.5 H 33 l -0.1,-0.1 -0.1,-0.3 v -0.1 l 0.1,-0.1 0.5,-0.5 c 0.1,0 0.1,-0.1 0.2,0 l 0.1,0.1 z m -10.3,16.7 c 0,0.3 -0.1,0.9 -0.3,1.2 l -1.6,3.3 -0.7,1 -5.1,6.2 c -0.2,0.2 -0.2,0.4 0.2,0.4 h 0.6 c 0.3,0 0.6,0.2 0.6,0.5 0,0.3 -0.3,0.5 -0.6,0.5 h -2.5 a 0.6,0.6 0 0 1 -0.6,-0.6 v -7.9 c 0,-0.3 0.3,-0.6 0.6,-0.6 h 0.7 c 0.3,0 0.6,-0.3 0.6,-0.6 v -0.7 c 0,-0.3 -0.3,-0.6 -0.6,-0.6 h -0.7 a 0.6,0.6 0 0 1 -0.6,-0.6 v -3.8 c 0,-0.3 -0.3,-0.6 -0.6,-0.6 h -1 c -0.3,0 -0.8,-0.2 -1.1,-0.4 l -3.3,-2.3 -0.8,-0.9 -1.5,-2.6 c -0.2,-0.3 -0.6,-0.5 -0.9,-0.5 H 3.5 a 1,1 0 0 1 -0.7,-0.3 25.8,25.8 0 0 1 10.1,-16.5 v 3.9 c 0,0.3 0.2,0.8 0.5,1 l 1.1,0.8 c 0.3,0.2 0.8,0.4 1.1,0.4 h 0.9 c 0.3,0 0.6,0.2 0.6,0.5 0,0.3 -0.2,0.7 -0.4,0.9 l -1.3,1.4 c -0.2,0.2 -0.1,0.4 0.2,0.4 h 0.9 c 0.3,0 0.6,0.3 0.6,0.6 v 2.2 c 0,0.3 0.3,0.6 0.6,0.6 h 1 c 0.3,0 0.6,0.2 0.6,0.5 0,0.3 -0.3,0.5 -0.6,0.5 h -3 c -0.3,0 -0.8,0.2 -1.1,0.4 l -1.2,0.9 c -0.3,0.2 -0.5,0.6 -0.5,1 v 3.6 c 0,0.3 -0.3,0.6 -0.6,0.6 h -0.2 a 0.6,0.6 0 0 1 -0.6,-0.6 v -2.3 c 0,-0.3 -0.3,-0.6 -0.6,-0.6 H 9.2 c -0.3,0 -0.6,0.3 -0.6,0.6 v 1.7 c 0,0.3 0.2,0.8 0.5,1 l 2.4,1.9 c 0.3,0.2 0.7,0.4 1.1,0.4 h 4 c 0.3,0 0.9,0.1 1.1,0.3 l 5.2,2.7 c 0.3,0.2 0.5,0.6 0.5,0.9 z m 0.3,-23.9 c -0.1,-0.2 -0.1,-0.4 0.1,-0.6 l 1.2,-1.3 0.6,-0.2 0.5,0.1 h 0.6 l 0.6,-0.4 0.8,-1.6 c 0.1,-0.3 -0.1,-0.4 -0.2,-0.6 -0.2,-0.2 -0.2,-0.3 -0.6,-0.3 h -1.3 l -0.4,0.1 -0.3,0.3 -0.9,1.4 -0.5,0.4 c -0.3,0.1 -0.5,0.2 -0.8,0.1 h -0.7 l -0.4,0.1 c -0.2,0.1 -0.3,0.2 -0.4,0.5 l -1.6,3.6 -0.4,0.4 -0.8,0.3 h -0.7 c -0.2,0 -0.4,0 -0.6,-0.2 l -0.3,-0.4 -2.6,-5.5 c 3.8,-2.3 8.3,-3.6 13,-3.6 h 0.9 l -0.2,0.9 c -0.1,0.2 0,0.3 0,0.4 0,0.1 0,0.3 0.2,0.3 l 2.3,0.6 0.5,0.4 v 0.6 l -1.7,2.6 -0.6,0.4 -0.4,0.1 h -0.3 c -0.2,0.1 -0.4,0.2 -0.5,0.5 l -0.3,0.3 -0.3,0.1 -3.1,0.3 c -0.1,0.3 -0.3,0.2 -0.4,-0.1 z m 26.6,16.4 -2.8,2.6 a 1,1 0 0 1 -0.7,0.3 c -0.3,0 -0.4,-0.2 -0.5,-0.4 l -2.7,-3.7 c -0.2,-0.2 -0.4,-0.4 -0.5,-0.3 -0.4,0.3 -0.3,0.5 -0.2,0.7 l 3.2,4.3 c 0.2,0.2 0.3,0.3 0.6,0.3 l 0.4,-0.1 1.4,-0.7 c 0.1,-0.1 0.3,0 0.4,0 0.2,0.1 0.3,0.3 0.2,0.5 -0.2,0.7 -0.4,1.4 -0.8,2 -0.4,0.6 -0.6,0.9 -1.2,1.4 l -0.3,0.3 c -0.3,0.2 -0.5,0.4 -0.6,0.8 l -0.1,0.6 0.2,1.6 -0.1,0.6 c -0.1,0.2 -0.2,0.2 -0.4,0.3 l -0.7,0.3 c -0.2,0.1 -0.3,0.2 -0.4,0.5 l -0.1,0.5 0.1,0.5 c -2.6,4.8 -1.9,6.6 -5.3,6.6 -1.1,0 -1.9,-3.2 -2.3,-4.8 l -0.4,-2 c -0.1,-0.1 -0.1,-0.2 0,-0.4 l 0.2,-0.2 c 0.3,-0.1 0.4,-0.3 0.4,-0.6 0,-0.2 0,-0.3 -0.2,-0.5 l -1.4,-1.6 -0.4,-0.5 -0.1,-0.4 v -0.9 c 0,-0.4 -0.2,-0.7 -0.5,-1 -0.3,-0.3 -0.6,-0.4 -1,-0.4 l -2.8,0.2 c -0.4,0 -0.6,0 -1,-0.2 l -0.6,-0.4 -1.8,-2.3 -0.3,-0.4 -0.1,-0.5 -0.1,-1.5 c 0,-0.3 0,-0.5 0.2,-0.8 l 0.3,-0.4 2.8,-2.6 0.5,-0.3 0.7,-0.1 h 4.5 l 0.2,0.2 v 0.2 l -0.1,0.4 0.1,0.3 h 0.8 l 0.3,0.1 1.1,0.7 h 0.3 l 0.1,-0.2 0.1,-0.2 0.1,-0.2 0.4,-0.3 0.3,-0.1 0.2,0.1 0.7,0.4 0.7,0.2 h 0.3 l 1.1,-0.2 c 0.2,0 0.3,-0.1 0.4,-0.3 l 0.1,-0.2 v -1.3 l -0.2,-0.2 -0.3,0.2 c 0,0.2 -0.3,0.1 -0.4,0.1 h -0.9 l -0.2,-0.1 -0.3,-0.4 -0.1,-0.2 0.1,-0.2 1.3,-0.9 0.3,-0.2 0.3,-0.1 h 0.9 c 0.2,0 0.4,-0.2 0.3,-0.4 l -0.2,-0.2 -1,-0.6 -0.2,-0.1 -0.1,0.1 0.2,0.1 -0.2,0.2 h -0.8 c -0.2,0.1 -0.3,0.3 -0.3,0.5 v 0.3 l -0.1,0.4 c -0.1,0.1 -0.1,0.2 -0.3,0.2 l -0.6,0.5 -0.2,0.2 v 0.6 c 0,0.2 -0.1,0.2 -0.3,0.2 l -0.3,-0.3 -0.4,-0.4 -0.2,-0.3 c -0.1,-0.2 0.1,-0.4 -0.1,-0.6 l -1,-1 c -0.2,-0.2 -0.4,0 -0.5,0.1 v 0.2 l 0.9,1 0.1,0.2 -0.1,0.3 0.1,0.2 -0.1,0.3 -0.5,0.4 c -0.1,0.1 -0.2,0.1 -0.2,0 v -0.1 c 0.1,-0.1 0.2,-0.1 0.2,-0.3 l -0.1,-0.1 -1.2,-1.7 -0.2,-0.1 -0.3,-0.1 -0.7,0.1 -0.4,0.2 v 0.2 l -0.1,0.4 -0.4,0.1 -0.3,0.2 v 0.2 c 0.1,0.2 0,0.3 -0.2,0.4 l -0.2,0.1 -1.2,0.4 h -0.3 l -0.2,-0.1 -0.8,-0.7 -0.1,-0.1 v -0.2 l 0.5,-1.5 0.2,-0.1 h 0.3 l 1.5,0.2 h 0.2 l 0.1,-0.1 0.1,-0.4 v -0.3 l -0.1,-0.1 -0.3,-0.1 -0.1,-0.3 0.2,-0.1 h 0.6 l 0.2,-0.1 1.9,-1.2 0.2,-0.2 v -0.7 c 0,-0.1 0.2,-0.2 0.3,-0.1 l 0.2,0.2 v 0.7 l 0.1,0.1 0.7,0.2 h 0.1 l 0.2,-0.1 0.2,-0.3 0.3,-0.2 0.3,-0.2 v -0.3 l 0.1,-0.3 0.3,-0.2 0.2,-0.1 v -0.6 l 0.2,-0.1 0.8,-0.3 0.1,-0.2 -0.2,-0.1 -0.7,0.2 c -0.1,0 -0.1,0.1 -0.2,0 l -0.1,-0.1 0.2,-1.1 c 0,-0.1 -0.1,-0.3 -0.3,-0.3 l -0.2,0.2 -0.3,1 -0.1,0.5 -0.3,0.3 -0.1,0.2 v 0.9 l -0.1,0.2 -0.2,0.2 -0.2,0.1 -0.2,-0.2 -0.3,-0.8 -0.1,-0.1 h -0.1 l -0.3,0.3 c -0.1,0.1 -0.1,0.1 -0.2,0 a 0.2,0.2 0 0 1 -0.2,-0.2 v -0.9 l 0.1,-0.3 1.7,-2.1 0.3,-0.2 h 1.8 l 0.3,0.1 0.4,0.4 0.4,0.3 0.4,-0.1 0.3,-0.3 c 0.2,-0.1 0.2,-0.2 0.3,-0.4 l -0.1,-0.3 -1.5,-1.7 c -0.1,-0.2 -0.1,-0.4 0.1,-0.5 h 0.5 l 1,1.1 0.3,0.3 c 0.4,0.4 0.9,0.5 1.3,0.2 0.4,-0.3 0.3,-0.9 -0.1,-1.3 l -1.3,-1.2 c -0.2,-0.2 -0.2,-0.4 -0.1,-0.7 l 0.2,-0.3 0.5,-0.4 c 4.7,3.7 8,8.9 9.2,15 h -5 c -0.2,0 -0.4,0.1 -0.5,0.3 -0.1,0.2 -0.2,0.4 -0.1,0.6 l 0.4,0.8 0.3,0.3 c 0.2,0.1 0.4,0 0.5,-0.1 l 0.8,-0.6 0.4,-0.1 0.4,0.1 0.6,0.6 c 0.3,0.3 0.4,0.5 0.4,0.9 -0.1,0.2 -0.1,0.4 -0.4,0.7 z" />
</svg>