<svg width="55.600002" height="55.599998" xmlns="http://www.w3.org/2000/svg">
  <path fill="#000000" d="m 0.4,27.8 a 27.5,27.5 0 1 1 55,0 27.5,27.5 0 1 1 -55,0" />
  <path fill="#ffde00" d="m 27.8,0 a 27.8,27.8 0 1 0 0,55.6 27.8,27.8 0 1 0 0,-55.6 z m 10.1,9.7 0.7,-0.5 h 0.2 v 0.1 l -0.2,0.2 c -0.1,0.1 -0.1,0.1 0,0.2 l 0.2,0.1 C 39,9.7 39,9.9 39,10 l -0.1,0.2 -0.4,0.3 H 38.4 L 38.3,10.4 37.9,9.9 37.8,9.8 Z m -3.4,5.9 c 0.1,-0.1 0.1,-0.1 0.2,0 l 0.1,0.1 0.1,0.4 v 0.1 l -0.1,0.1 -0.1,0.1 0.1,0.2 0.4,0.7 0.1,0.2 -0.2,0.2 -0.5,0.4 H 34.4 L 34.3,18 34.1,17.7 v -0.2 l 0.2,-0.1 -0.4,-0.9 -0.1,-0.2 0.1,-0.2 z M 32.8,13 h 0.8 c 0.3,0 0.2,0.4 0.1,0.5 L 33.4,13.6 33,13.5 h -0.3 c -0.2,0 -0.2,-0.1 -0.2,-0.2 0,-0.2 0.1,-0.3 0.3,-0.3 z m 1,4.2 -0.1,0.2 -0.6,0.5 H 33 l -0.1,-0.1 -0.1,-0.3 v -0.1 l 0.1,-0.1 0.5,-0.5 c 0.1,0 0.1,-0.1 0.2,0 l 0.1,0.1 z M 23.5,33.9 c 0,0.3 -0.1,0.9 -0.3,1.2 l -1.6,3.3 -0.7,1 -5.1,6.2 C 15.6,45.8 15.6,46 16,46 h 0.6 c 0.3,0 0.6,0.2 0.6,0.5 0,0.3 -0.3,0.5 -0.6,0.5 h -2.5 a 0.6,0.6 0 0 1 -0.6,-0.6 v -7.9 c 0,-0.3 0.3,-0.6 0.6,-0.6 h 0.7 c 0.3,0 0.6,-0.3 0.6,-0.6 V 36.6 C 15.4,36.3 15.1,36 14.8,36 H 14.1 A 0.6,0.6 0 0 1 13.5,35.4 V 31.6 C 13.5,31.3 13.2,31 12.9,31 h -1 c -0.3,0 -0.8,-0.2 -1.1,-0.4 L 7.5,28.3 6.7,27.4 5.2,24.8 C 5,24.5 4.6,24.3 4.3,24.3 H 3.5 A 1,1 0 0 1 2.8,24 25.8,25.8 0 0 1 12.9,7.5 v 3.9 c 0,0.3 0.2,0.8 0.5,1 l 1.1,0.8 c 0.3,0.2 0.8,0.4 1.1,0.4 h 0.9 c 0.3,0 0.6,0.2 0.6,0.5 0,0.3 -0.2,0.7 -0.4,0.9 l -1.3,1.4 c -0.2,0.2 -0.1,0.4 0.2,0.4 h 0.9 c 0.3,0 0.6,0.3 0.6,0.6 v 2.2 c 0,0.3 0.3,0.6 0.6,0.6 h 1 c 0.3,0 0.6,0.2 0.6,0.5 0,0.3 -0.3,0.5 -0.6,0.5 h -3 c -0.3,0 -0.8,0.2 -1.1,0.4 l -1.2,0.9 c -0.3,0.2 -0.5,0.6 -0.5,1 v 3.6 c 0,0.3 -0.3,0.6 -0.6,0.6 h -0.2 a 0.6,0.6 0 0 1 -0.6,-0.6 v -2.3 c 0,-0.3 -0.3,-0.6 -0.6,-0.6 H 9.2 c -0.3,0 -0.6,0.3 -0.6,0.6 v 1.7 c 0,0.3 0.2,0.8 0.5,1 l 2.4,1.9 c 0.3,0.2 0.7,0.4 1.1,0.4 h 4 c 0.3,0 0.9,0.1 1.1,0.3 l 5.2,2.7 c 0.3,0.2 0.5,0.6 0.5,0.9 z M 23.8,10 C 23.7,9.8 23.7,9.6 23.9,9.4 L 25.1,8.1 25.7,7.9 26.2,8 h 0.6 L 27.4,7.6 28.2,6 C 28.3,5.7 28.1,5.6 28,5.4 27.8,5.2 27.8,5.1 27.4,5.1 H 26.1 L 25.7,5.2 25.4,5.5 24.5,6.9 24,7.3 C 23.7,7.4 23.5,7.5 23.2,7.4 H 22.5 L 22.1,7.5 C 21.9,7.6 21.8,7.7 21.7,8 l -1.6,3.6 -0.4,0.4 -0.8,0.3 h -0.7 c -0.2,0 -0.4,0 -0.6,-0.2 L 17.3,11.7 14.7,6.2 C 18.5,3.9 23,2.6 27.7,2.6 h 0.9 l -0.2,0.9 c -0.1,0.2 0,0.3 0,0.4 0,0.1 0,0.3 0.2,0.3 l 2.3,0.6 0.5,0.4 V 5.8 L 29.7,8.4 29.1,8.8 28.7,8.9 H 28.4 C 28.2,9 28,9.1 27.9,9.4 l -0.3,0.3 -0.3,0.1 -3.1,0.3 C 24.1,10.4 23.9,10.3 23.8,10 Z M 50.4,26.4 47.6,29 a 1,1 0 0 1 -0.7,0.3 c -0.3,0 -0.4,-0.2 -0.5,-0.4 L 43.7,25.2 C 43.5,25 43.3,24.8 43.2,24.9 42.8,25.2 42.9,25.4 43,25.6 l 3.2,4.3 c 0.2,0.2 0.3,0.3 0.6,0.3 l 0.4,-0.1 1.4,-0.7 c 0.1,-0.1 0.3,0 0.4,0 0.2,0.1 0.3,0.3 0.2,0.5 -0.2,0.7 -0.4,1.4 -0.8,2 -0.4,0.6 -0.6,0.9 -1.2,1.4 l -0.3,0.3 c -0.3,0.2 -0.5,0.4 -0.6,0.8 l -0.1,0.6 0.2,1.6 -0.1,0.6 c -0.1,0.2 -0.2,0.2 -0.4,0.3 l -0.7,0.3 C 45,37.9 44.9,38 44.8,38.3 l -0.1,0.5 0.1,0.5 c -2.6,4.8 -1.9,6.6 -5.3,6.6 -1.1,0 -1.9,-3.2 -2.3,-4.8 l -0.4,-2 c -0.1,-0.1 -0.1,-0.2 0,-0.4 L 37,38.5 c 0.3,-0.1 0.4,-0.3 0.4,-0.6 0,-0.2 0,-0.3 -0.2,-0.5 L 35.8,35.8 35.4,35.3 35.3,34.9 V 34 c 0,-0.4 -0.2,-0.7 -0.5,-1 -0.3,-0.3 -0.6,-0.4 -1,-0.4 L 31,32.8 c -0.4,0 -0.6,0 -1,-0.2 L 29.4,32.2 27.6,29.9 27.3,29.5 27.2,29 27.1,27.5 c 0,-0.3 0,-0.5 0.2,-0.8 l 0.3,-0.4 2.8,-2.6 0.5,-0.3 0.7,-0.1 h 4.5 l 0.2,0.2 v 0.2 l -0.1,0.4 0.1,0.3 h 0.8 l 0.3,0.1 1.1,0.7 h 0.3 l 0.1,-0.2 0.1,-0.2 0.1,-0.2 0.4,-0.3 0.3,-0.1 0.2,0.1 0.7,0.4 0.7,0.2 h 0.3 l 1.1,-0.2 c 0.2,0 0.3,-0.1 0.4,-0.3 l 0.1,-0.2 v -1.3 l -0.2,-0.2 -0.3,0.2 c 0,0.2 -0.3,0.1 -0.4,0.1 H 41.5 L 41.3,22.9 41,22.5 40.9,22.3 41,22.1 42.3,21.2 42.6,21 42.9,20.9 h 0.9 c 0.2,0 0.4,-0.2 0.3,-0.4 l -0.2,-0.2 -1,-0.6 -0.2,-0.1 -0.1,0.1 0.2,0.1 -0.2,0.2 h -0.8 c -0.2,0.1 -0.3,0.3 -0.3,0.5 v 0.3 l -0.1,0.4 c -0.1,0.1 -0.1,0.2 -0.3,0.2 l -0.6,0.5 -0.2,0.2 v 0.6 c 0,0.2 -0.1,0.2 -0.3,0.2 L 39.7,22.6 39.3,22.2 39.1,21.9 C 39,21.7 39.2,21.5 39,21.3 l -1,-1 c -0.2,-0.2 -0.4,0 -0.5,0.1 v 0.2 l 0.9,1 0.1,0.2 -0.1,0.3 0.1,0.2 -0.1,0.3 -0.5,0.4 c -0.1,0.1 -0.2,0.1 -0.2,0 v -0.1 c 0.1,-0.1 0.2,-0.1 0.2,-0.3 l -0.1,-0.1 -1.2,-1.7 -0.2,-0.1 -0.3,-0.1 -0.7,0.1 -0.4,0.2 v 0.2 l -0.1,0.4 -0.4,0.1 -0.3,0.2 V 22 c 0.1,0.2 0,0.3 -0.2,0.4 l -0.2,0.1 -1.2,0.4 H 32.3 L 32.1,22.8 31.3,22.1 31.2,22 v -0.2 l 0.5,-1.5 0.2,-0.1 h 0.3 l 1.5,0.2 h 0.2 L 34,20.3 34.1,19.9 V 19.6 L 34,19.5 33.7,19.4 33.6,19.1 33.8,19 h 0.6 l 0.2,-0.1 1.9,-1.2 0.2,-0.2 v -0.7 c 0,-0.1 0.2,-0.2 0.3,-0.1 l 0.2,0.2 v 0.7 l 0.1,0.1 0.7,0.2 h 0.1 l 0.2,-0.1 0.2,-0.3 0.3,-0.2 0.3,-0.2 v -0.3 l 0.1,-0.3 0.3,-0.2 0.2,-0.1 v -0.6 l 0.2,-0.1 0.8,-0.3 0.1,-0.2 -0.2,-0.1 -0.7,0.2 c -0.1,0 -0.1,0.1 -0.2,0 L 39.6,15 39.8,13.9 c 0,-0.1 -0.1,-0.3 -0.3,-0.3 l -0.2,0.2 -0.3,1 -0.1,0.5 -0.3,0.3 -0.1,0.2 v 0.9 L 38.4,16.9 38.2,17.1 38,17.2 37.8,17 37.5,16.2 37.4,16.1 H 37.3 L 37,16.4 c -0.1,0.1 -0.1,0.1 -0.2,0 a 0.2,0.2 0 0 1 -0.2,-0.2 v -0.9 l 0.1,-0.3 1.7,-2.1 0.3,-0.2 h 1.8 l 0.3,0.1 0.4,0.4 0.4,0.3 0.4,-0.1 0.3,-0.3 c 0.2,-0.1 0.2,-0.2 0.3,-0.4 L 42.5,12.4 41,10.7 c -0.1,-0.2 -0.1,-0.4 0.1,-0.5 h 0.5 l 1,1.1 0.3,0.3 c 0.4,0.4 0.9,0.5 1.3,0.2 0.4,-0.3 0.3,-0.9 -0.1,-1.3 L 42.8,9.3 C 42.6,9.1 42.6,8.9 42.7,8.6 l 0.2,-0.3 0.5,-0.4 c 4.7,3.7 8,8.9 9.2,15 h -5 c -0.2,0 -0.4,0.1 -0.5,0.3 -0.1,0.2 -0.2,0.4 -0.1,0.6 l 0.4,0.8 0.3,0.3 c 0.2,0.1 0.4,0 0.5,-0.1 l 0.8,-0.6 0.4,-0.1 0.4,0.1 0.6,0.6 c 0.3,0.3 0.4,0.5 0.4,0.9 -0.1,0.2 -0.1,0.4 -0.4,0.7 z" />
</svg>