<svg viewBox="0 0 510.01 119.47" height="119.47" width="510.01" xmlns="http://www.w3.org/2000/svg">
  <g style="stroke-width:1.0244">
    <g style="fill:#286fb7">
      <path d="M 505.0102,114.46462 H 5.00056 V 4.99724 H 505.0102 Z" />
      <path d="m 202.05414,74.66668 c -3.30881,-3.134664 -7.76495,-7.437144 -10.65376,-10.7562 h -0.87074 c 2.06929,2.366364 4.57907,4.978584 6.94544,7.099092 5.80834,5.22444 9.2913,9.004476 11.64742,12.630852 l -1.15757,-1.321476 c -4.68151,-5.193708 -5.2859,-4.886388 -9.1274,-8.389836 -3.8415,-3.53418 -8.52301,-5.962008 -8.52301,-5.962008 0,0 -1.38294,-0.891228 -4.39468,-1.936116 v 1.38294 c 4.03614,1.444404 5.80835,2.45856 5.80835,2.45856 0,0 5.91079,3.319056 10.244,7.498608 3.70833,3.595644 4.54834,4.517604 5.39859,5.470296 0,0 1.7927,1.260012 2.68393,1.628796 0,0 -1.51611,-3.68784 -8.00057,-9.803508" />
      <path d="m 202.05414,74.66668 v 0 c -3.31905,-3.165396 -7.77519,-7.437144 -10.62302,-10.7562 h -0.10244 -0.87074 v 0 0.10244 c 2.01806,2.335632 4.57906,4.947852 6.93518,7.099092 5.80835,5.22444 9.28107,8.973744 11.6167,12.60012 h 0.10244 v 0 l -1.17806,-1.321476 c -4.66102,-5.193708 -5.2859,-4.886388 -9.1274,-8.389836 -3.8415,-3.53418 -8.48204,-5.99274 -8.48204,-5.99274 l -0.10244,0.10244 0.10244,-0.10244 c 0,0 -1.41367,-0.860496 -4.45614,-1.936116 v 0 0.10244 1.38294 0 c 2.02832,0.737568 3.47272,1.352208 4.42541,1.782456 0.46098,0.245856 0.84001,0.399516 1.04489,0.522444 0.24586,0.122928 0.3483,0.184392 0.3483,0.184392 0,0 0.35854,0.215124 0.98342,0.583908 1.86441,1.137084 5.99274,3.780036 9.20936,6.883968 3.7493,3.595644 4.57906,4.517604 5.43956,5.470296 v 0 c 0,0 1.78246,1.260012 2.67368,1.598064 h 0.10244 v -0.10244 c 0,0 -1.50586,-3.68784 -7.99032,-9.803508 v 0 0 c 3.21662,3.0732 5.2142,5.501028 6.38202,7.191288 0.61464,0.829764 1.01415,1.505868 1.23952,1.936116 0.11268,0.215124 0.21512,0.368784 0.26634,0.491712 0,0.122928 0.10244,0.15366 0.10244,0.15366 h 0.10244 v -0.10244 c -0.39951,-0.184392 -1.08586,-0.583908 -1.63904,-0.92196 -0.54293,-0.368784 -1.00391,-0.676104 -1.00391,-0.676104 v 0 0 c -0.84001,-0.952692 -1.7005,-1.874652 -5.41907,-5.470296 -4.33322,-4.179552 -10.23376,-7.498608 -10.23376,-7.498608 0,0 -1.80294,-1.044888 -5.83908,-2.489292 v 0.10244 h 0.10244 V 66.0105 h -0.10244 v 0 c 1.51611,0.553176 2.62246,1.044888 3.36003,1.38294 0.35854,0.184392 0.61464,0.30732 0.79903,0.399516 0.17415,0.122928 0.26635,0.15366 0.26635,0.15366 0,0 0.28683,0.15366 0.7683,0.46098 1.51611,0.829764 4.82492,2.858076 7.71373,5.501028 3.8415,3.53418 4.45614,3.22686 9.1274,8.389836 v 0 0 l 1.16782,1.321476 h 0.10244 v -0.10244 c -2.37661,-3.626376 -5.83908,-7.406412 -11.6167,-12.630852 -2.3766,-2.120508 -4.92736,-4.76346 -6.94543,-7.099092 h -0.10244 v 0.10244 h 0.87074 v -0.10244 0.10244 c 2.85808,3.288324 7.32446,7.590804 10.67425,10.725468 v 0 z" />
      <path d="m 192.92674,68.41375 c -1.65953,-1.567332 -2.48929,-2.45856 -4.76346,-4.025892 h -0.55318 c 3.62638,2.520024 5.31664,4.025892 5.31664,4.025892" />
      <path d="m 192.92674,68.41375 v 0 c -1.65953,-1.567332 -2.48929,-2.489292 -4.76346,-4.056624 v 0 h -0.55318 v 0 0.10244 c 1.81319,1.260012 3.13467,2.243436 4.0259,2.950272 0.43024,0.338052 0.73756,0.61464 0.98342,0.799032 0.18439,0.15366 0.30732,0.245856 0.30732,0.245856 h 0.10244 v -0.10244 0 0 c 0,0 -1.69026,-1.5366 -5.31664,-4.025892 v 0 0.10244 h 0.55318 v -0.10244 0 c 2.24344,1.567332 3.10393,2.489292 4.76346,4.025892 v 0 0 0 z" />
      <path d="m 177.79635,46.149436 c -1.13709,-1.936116 -3.47272,-5.470296 -5.99274,-7.22202 -3.65711,-2.581488 -6.60738,-3.749304 -6.60738,-3.749304 l 0.79903,1.567332 c 0,0 -6.1464,-2.335632 -8.75862,-4.210284 -3.9337,-2.858076 -9.49619,-8.328372 -9.49619,-8.328372 -0.30732,3.99516 1.41367,9.9879 1.41367,9.9879 -0.7683,-0.368784 -2.05904,-2.059044 -2.05904,-2.059044 2.70442,11.37084 9.49619,15.734784 9.49619,15.734784 -0.46098,0 -3.99516,-1.22928 -3.99516,-1.22928 3.47271,4.886388 13.18403,9.188868 13.18403,9.188868 -1.04489,0 -4.33322,-0.706836 -4.33322,-0.706836 8.75862,6.9147 17.70164,9.004476 17.70164,9.004476 v -0.7683 c -6.2386,-0.92196 -16.1343,-7.467876 -16.1343,-7.467876 2.981,0.7683 4.21028,0.276588 4.21028,0.276588 -11.37084,-5.869812 -13.46062,-8.820084 -13.46062,-8.820084 2.02832,1.044888 4.48688,1.044888 4.48688,1.044888 -6.82251,-3.411252 -10.57181,-14.997216 -10.57181,-14.997216 1.22928,1.260012 2.05904,1.5366 2.05904,1.5366 -1.75172,-6.668844 -1.81319,-10.325952 -1.81319,-10.325952 0.1844,0.46098 3.59565,4.333212 9.89571,8.635692 4.24101,2.858076 8.57423,4.14882 8.57423,4.14882 l -0.1844,-1.137084 c 0,0 0.9527,0 5.3781,3.257592 2.98101,2.181972 5.22444,5.623956 6.2386,7.52934 l -0.10244,-0.891228 z" />
      <path d="m 177.79635,46.149436 h 0.10244 c -1.13709,-1.936116 -3.50345,-5.470296 -5.99274,-7.252752 -3.68784,-2.550756 -6.63811,-3.749304 -6.63811,-3.749304 h -0.10244 v 0.10244 l 0.79903,1.567332 h 0.10244 v -0.10244 c 0,0 -0.36879,-0.122928 -0.98343,-0.368784 -1.84392,-0.737568 -5.77761,-2.397096 -7.71373,-3.810768 -1.99758,-1.444404 -4.36394,-3.53418 -6.23859,-5.255172 -0.9527,-0.860496 -1.75173,-1.628796 -2.36637,-2.181972 -0.55317,-0.553176 -0.92196,-0.891228 -0.92196,-0.891228 h -0.10244 v 0 c 0,0.338052 0,0.706836 0,1.07562 0,3.902964 1.44441,8.91228 1.44441,8.91228 h 0.10244 v -0.10244 c -0.36879,-0.15366 -0.89123,-0.676104 -1.32148,-1.137084 -0.18439,-0.245856 -0.36878,-0.46098 -0.52244,-0.645372 -0.12293,-0.15366 -0.1844,-0.245856 -0.1844,-0.245856 h -0.10244 v 0.10244 c 2.73515,11.401572 9.52692,15.796248 9.52692,15.796248 v -0.10244 0 c -0.10244,0 -0.39951,-0.10244 -0.79903,-0.215124 -0.61464,-0.184392 -1.41367,-0.430248 -2.05904,-0.645372 -0.64537,-0.215124 -1.13709,-0.399516 -1.13709,-0.399516 h -0.10244 v 0.10244 c 3.50345,4.886388 13.2455,9.2196 13.2455,9.2196 v -0.10244 0 c -0.49172,0 -1.59807,-0.184392 -2.55076,-0.368784 -0.95269,-0.15366 -1.78246,-0.338052 -1.78246,-0.338052 h -0.10244 v 0.10244 c 8.78936,6.9147 17.7631,9.004476 17.7631,9.004476 h 0.10244 v 0 -0.7683 l -0.10244,-0.10244 c -3.10393,-0.46098 -7.12982,-2.3049 -10.35668,-4.056624 -1.6288,-0.860496 -3.0732,-1.720992 -4.08736,-2.335632 -0.52244,-0.30732 -0.92196,-0.583908 -1.19855,-0.7683 -0.30732,-0.184392 -0.46098,-0.276588 -0.46098,-0.276588 v 0 0.10244 c 1.29075,0.338052 2.24344,0.430248 2.91954,0.430248 0.89123,0 1.29075,-0.15366 1.29075,-0.15366 v -0.10244 -0.10244 c -5.65469,-2.91954 -9.03521,-5.101512 -10.97133,-6.576648 -0.95269,-0.7683 -1.56733,-1.321476 -1.93611,-1.659528 -0.1844,-0.184392 -0.30732,-0.338052 -0.39952,-0.430248 -0.10244,-0.10244 -0.10244,-0.10244 -0.10244,-0.10244 v 0 0 0 c 2.05904,1.07562 4.5176,1.07562 4.5176,1.07562 l 0.10244,-0.10244 v -0.10244 c -3.41125,-1.69026 -6.0542,-5.439564 -7.83666,-8.75862 -0.89122,-1.659528 -1.56733,-3.196128 -2.02831,-4.333212 -0.21512,-0.583908 -0.39951,-1.044888 -0.49171,-1.352208 -0.12293,-0.338052 -0.18439,-0.522444 -0.18439,-0.522444 h -0.10244 v 0 c 1.22928,1.290744 2.05904,1.567332 2.08977,1.567332 v 0 -0.10244 c -0.86049,-3.349788 -1.32147,-5.931276 -1.56733,-7.683 -0.12293,-0.860496 -0.18439,-1.5366 -0.21512,-1.966848 0,-0.46098 -0.10244,-0.676104 -0.10244,-0.676104 v 0 h -0.10244 c 0.10244,0.15366 0.30732,0.46098 0.73757,0.952692 1.3522,1.505868 4.45614,4.486872 9.18886,7.744464 4.24102,2.858076 8.57423,4.14882 8.60496,4.14882 v 0 -0.10244 l -0.18439,-1.167816 h -0.10244 v 0 0 c 0.10244,0 1.16782,0.215124 5.31664,3.257592 2.95027,2.181972 5.19371,5.623956 6.20786,7.52934 h 0.10244 v -0.10244 l -0.10244,-0.891228 v 0 h -0.10244 -0.10244 l 0.10244,0.891228 h 0.10244 0.10244 c -1.04489,-1.905384 -3.28832,-5.347368 -6.26933,-7.560072 -4.4254,-3.22686 -5.3781,-3.257592 -5.40883,-3.257592 v 0 0.10244 l 0.18439,1.137084 h 0.10244 v -0.10244 c 0,0 -0.27658,-0.10244 -0.7683,-0.215124 -1.41367,-0.522444 -4.64053,-1.782456 -7.80592,-3.902964 -3.13467,-2.15124 -5.5625,-4.210284 -7.22202,-5.777616 -0.82977,-0.7683 -1.47514,-1.444404 -1.93612,-1.936116 -0.43025,-0.491712 -0.6761,-0.829764 -0.73757,-0.92196 h -0.10244 v 0.10244 c 0,0 0.10244,3.657108 1.81319,10.356684 h 0.10244 v 0 0 c -0.18439,-0.10244 -0.95269,-0.399516 -2.02831,-1.5366 h -0.10244 v 0.10244 c 0,0 3.7493,11.616696 10.60254,15.05868 v -0.10244 -0.10244 c 0,0 -0.15366,0 -0.43025,0 -0.7683,0 -2.52002,-0.245856 -4.02589,-1.014156 h -0.10244 v 0.10244 c 0,0 2.15124,2.981004 13.49135,8.850816 v -0.10244 -0.10244 c 0,0 0,0 -0.10244,0 -0.15366,0.10244 -0.55318,0.15366 -1.19855,0.15366 -0.64537,0 -1.59807,-0.10244 -2.88881,-0.430248 h -0.10244 v 0.10244 c 0,0 9.8957,6.545916 16.16503,7.437144 v 0 h -0.10244 v 0.799032 h 0.10244 v -0.10244 c 0,0 -0.15366,0 -0.39951,-0.10244 -1.84392,-0.491712 -9.64985,-2.827344 -17.30212,-8.881548 v 0 0.10244 c 0,0 3.28832,0.706836 4.36394,0.706836 h 0.10244 v -0.10244 c 0,0 -0.15366,-0.10244 -0.43024,-0.215124 -1.90539,-0.891228 -9.74205,-4.732728 -12.75378,-8.973744 v 0 0.10244 c 0,0 0.89122,0.30732 1.84392,0.61464 0.46098,0.15366 0.95269,0.30732 1.3522,0.430248 0.39952,0.122928 0.70684,0.184392 0.82977,0.184392 h 0.10244 v -0.10244 c 0,0 -0.10244,-0.10244 -0.30732,-0.215124 -1.32148,-0.983424 -6.79177,-5.562492 -9.15814,-15.51966 h -0.10244 v 0 c 0,0 0.30732,0.430248 0.73757,0.891228 0.43025,0.46098 0.95269,0.983424 1.32148,1.167816 h 0.10244 v -0.10244 c 0,0 -0.10244,-0.30732 -0.21513,-0.829764 -0.43025,-1.598064 -1.26001,-5.162976 -1.26001,-8.051784 0,-0.368784 0,-0.737568 0.10244,-1.044888 h -0.10244 v 0.10244 c 0,0 5.56249,5.439564 9.49619,8.29764 2.64295,1.905384 8.75862,4.241016 8.75862,4.241016 h 0.10244 v -0.10244 l -0.7683,-1.567332 h -0.10244 v 0.10244 c 0,0 0.21512,0.10244 0.52244,0.215124 1.01416,0.46098 3.34979,1.598064 6.08494,3.503448 2.48929,1.751724 4.85565,5.285904 5.96201,7.22202 h 0.10244 -0.10244 0.10244 z" />
      <path d="m 178.71832,55.877138 c -0.49172,-0.799032 -3.74931,-5.3781 -14.84356,-11.37084 -6.66884,-3.564912 -11.98548,-13.0611 -13.49135,-17.332848 0,0 4.6098,12.2928 14.56697,17.425044 6.17713,3.196128 11.58596,7.590804 13.7372,10.60254 v 0.676104 z" />
      <path d="m 178.71832,55.877138 h 0.10244 c -0.52245,-0.799032 -3.78004,-5.408832 -14.90502,-11.37084 -6.60738,-3.564912 -11.95475,-13.0611 -13.46062,-17.332848 v 0 h -0.10244 c 0,0 4.64053,12.323532 14.5977,17.455776 6.17713,3.22686 11.58596,7.590804 13.70647,10.60254 h 0.10244 -0.10244 v 0.676104 h 0.10244 0.10244 -0.10244 0.10244 l -0.10244,-0.676104 v 0 c -2.15124,-3.042468 -7.56007,-7.406412 -13.7372,-10.633272 -4.97859,-2.550756 -8.60496,-6.9147 -11.00206,-10.60254 -1.19855,-1.874652 -2.08977,-3.564912 -2.67368,-4.794192 -0.30732,-0.61464 -0.52245,-1.106352 -0.64537,-1.475136 -0.15366,-0.338052 -0.24586,-0.522444 -0.24586,-0.522444 h -0.10244 v 0.10244 c 1.50587,4.30248 6.8225,13.798668 13.52208,17.394312 11.09425,5.962008 14.35184,10.541076 14.81282,11.340108 h 0.10244 v -0.10244 h -0.10244 z" />
      <path d="m 152.37074,31.461592 -0.15366,-2.827344 z" />
      <path d="m 152.15562,28.632194 0.15366,2.827344 h 0.12293 l -0.15366,-2.827344 z" />
      <path d="m 154.25564,34.524548 -0.36878,-4.30248 z" />
      <path d="m 153.81515,30.2108 0.39951,4.333212 h 0.10244 L 153.97905,30.2108 h -0.15366 z" />
      <path d="m 156.07907,37.15213 -0.43025,-5.347368 z" />
      <path d="m 155.57712,31.822178 0.43025,5.347368 h 0.12293 l -0.42001,-5.347368 z" />
      <path d="m 157.9025,39.366886 -0.52244,-6.1464 z" />
      <path d="m 157.32884,33.23073 0.52244,6.1464 h 0.12293 l -0.52244,-6.1464 z" />
      <path d="m 163.10645,43.712386 -0.62488,-7.283484 z" />
      <path d="m 162.44059,36.431978 0.61464,7.283484 h 0.10244 l -0.58391,-7.314216 h -0.12292 z" />
      <path d="m 159.64399,40.967 -0.55318,-6.515184 z" />
      <path d="m 159.03959,34.471278 0.55317,6.515184 h 0.12293 l -0.55317,-6.515184 z" />
      <path d="m 161.39571,42.76892 -0.62489,-7.314216 z" />
      <path d="m 160.72984,35.466994 0.64538,7.314216 h 0.10244 l -0.58391,-7.314216 h -0.12293 z" />
      <path d="m 164.78648,44.591328 -0.6044,-7.283484 z" />
      <path d="m 164.13086,37.322184 0.61464,7.314216 h 0.10244 l -0.58391,-7.314216 h -0.12293 z" />
      <path d="m 166.49722,45.672066 -0.66586,-7.744464 z" />
      <path d="m 165.79039,37.957314 0.66586,7.744464 h 0.10244 l -0.63513,-7.744464 h -0.12293 z" />
      <path d="M 168.21821,46.700564 167.41918,37.4195 Z" />
      <path d="m 167.35772,37.406186 0.79903,9.250332 h 0.12293 l -0.79903,-9.250332 z" />
      <path d="m 169.9392,47.940092 -0.82976,-9.649848 z" />
      <path d="m 169.05822,38.286138 0.81952,9.649848 h 0.13317 l -0.82976,-9.68058 h -0.12293 z" />
      <path d="m 171.64995,49.12737 -0.82977,-9.803508 z" />
      <path d="m 170.75872,39.335124 0.82977,9.83424 h 0.12292 l -0.81952,-9.803508 h -0.13317 z" />
      <path d="m 173.34021,50.261378 -0.79903,-9.68058 z" />
      <path d="m 172.47972,40.585916 0.79903,9.68058 h 0.12293 l -0.79903,-9.68058 z" />
      <path d="m 175.14315,51.808222 -0.82976,-9.496188 z" />
      <path d="m 174.25193,42.29257 0.82976,9.567896 h 0.12293 l -0.82976,-9.537164 h -0.12293 z" />
      <path d="m 176.87439,53.41858 -0.79903,-9.250332 z" />
      <path d="m 176.0139,44.14673 0.79903,9.260576 h 0.12293 l -0.79904,-9.260576 z" />
      <path d="m 178.64661,55.570842 -0.73757,-8.60496 z" />
      <path d="m 177.84757,46.997636 0.72732,8.60496 h 0.13317 l -0.73756,-8.60496 z" />
    </g>
    <g style="fill:#d9e0f1">
      <path d="m 187.56913,64.38683 v 0 h 0.10244 0.55317 v 0 c 2.24344,1.5366 3.10393,2.45856 4.73273,4.025892 v 0.10244 h -0.10244 c 0,0 -0.12293,-0.10244 -0.30732,-0.276588 -0.21512,-0.184392 -0.55318,-0.430248 -0.98342,-0.799032 -0.8605,-0.676104 -2.21271,-1.659528 -3.99516,-2.91954 v -0.10244 z m 3.04246,-0.184392 h -4.48687 v 1.782456 c 0.43025,0.15366 0.79903,0.338052 1.16782,0.491712 2.05904,0.799032 3.04247,1.413672 3.0732,1.444404 0.12293,0.10244 4.70199,2.489292 8.51276,5.962008 3.81077,3.503448 4.45614,3.196128 9.12741,8.389836 l 0.5839,0.676104 c -2.33563,-3.411252 -5.71615,-7.006896 -11.12498,-11.893284 -0.58391,-0.522444 -1.19855,-1.07562 -1.78246,-1.659528 -1.90538,-1.782456 -3.7493,-3.718572 -5.07078,-5.193708" />
      <path d="m 166.35381,36.56925 v 0.215124 h 0.46098 c -0.18439,-0.10244 -0.33805,-0.15366 -0.49171,-0.215124 m -8.94302,-3.319056 0.52245,5.777616 c 0.52244,0.583908 1.04489,1.137084 1.62879,1.659528 l -0.52244,-6.207864 h 0.10244 v 0 l 0.55318,6.330792 c 0.52244,0.46098 1.04488,0.92196 1.59806,1.352208 l -0.55318,-6.668844 h 0.12293 l 0.55318,6.791772 c 0.30732,0.245856 0.64537,0.46098 0.95269,0.706836 v -6.177132 h 0.10244 v -0.368784 h 0.10244 v 0 0.368784 h 1.29074 c -2.3049,-0.952692 -4.48687,-2.181972 -6.45372,-3.53418 m -1.72099,-1.22928 0.43025,4.886388 c 0.52244,0.676104 1.07562,1.352208 1.69026,1.99758 l -0.49171,-5.68542 h 0.10244 c -0.58391,-0.399516 -1.13709,-0.799032 -1.69026,-1.198548 m -1.72099,-1.352208 0.30732,3.718572 c 0.52244,0.7683 1.07562,1.567332 1.72099,2.366364 l -0.43025,-4.824924 c -0.55318,-0.430248 -1.07562,-0.829764 -1.59806,-1.260012 m -1.69026,-1.444404 0.15366,2.089776 c 0.43024,0.799032 0.95269,1.69026 1.5366,2.61222 0.10244,0.10244 0.12292,0.184392 0.18439,0.245856 l -0.30732,-3.595644 c -0.55318,-0.46098 -1.07562,-0.92196 -1.56733,-1.352208 m -1.59807,-1.505868 c 0.12293,0.338052 0.33805,0.829764 0.61464,1.413672 0.27659,0.553176 0.61464,1.22928 1.01416,1.936116 l -0.12293,-1.936116 c -0.58391,-0.491712 -1.07562,-0.983424 -1.50587,-1.413672 m -2.39709,-2.45856 c 0.10244,2.550756 0.52244,5.285904 0.95269,7.22202 0.15366,0.7683 0.36878,1.598064 0.58391,2.45856 v 0 c 0,0.122928 0.10244,0.184392 0.10244,0.184392 -0.52245,-0.245856 -0.89123,-0.522444 -1.16782,-0.7683 -0.24586,-0.15366 -0.49171,-0.399516 -0.79903,-0.676104 0.10244,0.215124 0.12293,0.399516 0.15366,0.583908 0.12293,0.276588 0.24585,0.61464 0.36878,0.952692 0.46098,1.167816 1.13709,2.704416 2.05905,4.363944 1.78245,3.319056 4.39467,7.06836 7.80592,8.75862 v 0.10244 l -0.10244,0.10244 c 0,0 -0.24585,0 -0.64537,0 0.15366,0.10244 0.24586,0.122928 0.24586,0.122928 -1.59807,-0.184392 -3.0732,-0.676104 -3.78004,-0.952692 0.10244,0.10244 0.15366,0.15366 0.24586,0.245856 0.36878,0.368784 0.98342,0.92196 1.93611,1.659528 1.96685,1.475136 5.31664,3.68784 10.97133,6.638112 v 0 0.10244 c 0,0 -0.18439,0.10244 -0.61464,0.122928 h -0.10244 c -0.15366,0 -0.36879,0 -0.61464,0 -0.61464,0 -1.47514,-0.10244 -2.61222,-0.338052 0.10244,0 0.12293,0.10244 0.18439,0.10244 0.27659,0.184392 0.6761,0.430248 1.19855,0.737568 0.95269,0.583908 2.24343,1.352208 3.71857,2.15124 v -9.864972 c 0,-1.413672 -0.24586,-2.45856 -2.18197,-2.45856 h -3.90297 v -3.042468 c -5.80834,-3.964428 -10.38741,-12.046944 -11.92401,-16.165032 -1.35221,-1.321476 -2.15124,-2.243436 -2.15124,-2.243436" />
    </g>
    <g style="fill:#1f60ad">
      <path d="m 191.57453,64.206532 h -0.70684 c 1.99758,2.274168 4.39468,4.732728 6.66885,6.76104 5.80834,5.255172 9.28106,9.004476 11.64742,12.630852 v 0.10244 h -0.10244 l -1.16781,-1.352208 C 203.24244,77.18568 202.6278,77.493 198.7863,73.989552 c -2.8888,-2.642952 -6.20786,-4.671264 -7.71373,-5.53176 -0.49171,-0.276588 -0.7683,-0.430248 -0.7683,-0.430248 0,0 -0.10244,-0.10244 -0.27659,-0.15366 -0.18439,-0.10244 -0.43024,-0.245856 -0.79903,-0.430248 -0.70683,-0.338052 -1.72099,-0.7683 -3.13466,-1.290744 v 1.260012 c 3.90296,1.413672 5.65469,2.427828 5.65469,2.427828 0,0 5.90054,3.319056 10.23375,7.498608 3.71857,3.595644 4.57907,4.517604 5.40883,5.470296 0.10244,0 0.49172,0.338052 1.01416,0.676104 0.49171,0.338052 1.10635,0.676104 1.50587,0.891228 0,0 0,0 0,-0.10244 -0.10244,-0.10244 -0.15366,-0.276588 -0.24586,-0.491712 -0.24585,-0.430248 -0.64537,-1.07562 -1.22928,-1.936116 -1.19855,-1.659528 -3.19613,-4.118088 -6.42299,-7.160556 v -0.10244 0.10244 c -3.25759,-3.0732 -7.56007,-7.22202 -10.44888,-10.510344" />
      <path d="m 202.09512,74.624684 z m -15.98064,-7.22202 v 0.122928 c 1.90538,0.706836 3.28832,1.290744 4.17955,1.720992 0.49171,0.215124 0.82977,0.368784 1.07562,0.491712 0.21513,0.122928 0.33805,0.184392 0.33805,0.184392 0,0 0.36879,0.215124 0.98343,0.583908 1.84392,1.137084 5.96201,3.780036 9.2196,6.883968 3.7493,3.626376 4.57907,4.517604 5.43956,5.501028 v 0 c 0,0 1.78246,1.260012 2.67369,1.628796 h 0.10244 v -0.10244 c 0,0 -1.50587,-3.68784 -7.99032,-9.803508 v 0 0.10244 c 3.22686,3.042468 5.22444,5.501028 6.39225,7.160556 0.58391,0.860496 0.98343,1.505868 1.22928,1.936116 0.12293,0.215124 0.21513,0.399516 0.24586,0.491712 0,0 0,0 0,0 -0.43025,-0.184392 -1.01416,-0.522444 -1.5366,-0.860496 -0.49171,-0.338052 -0.92196,-0.645372 -0.98343,-0.676104 -0.86049,-0.952692 -1.69026,-1.874652 -5.40883,-5.470296 -4.36394,-4.179552 -10.23375,-7.498608 -10.23375,-7.498608 0,0 -1.75173,-1.014156 -5.65469,-2.427828 m 4.73273,-3.196128 h -0.12293 c 1.99758,2.274168 4.45614,4.794192 6.73031,6.853236 5.40883,4.886388 8.82008,8.482032 11.15571,11.893284 l -0.61464,-0.676104 v 0 c -4.67126,-5.193708 -5.2859,-4.886388 -9.1274,-8.389836 -3.78004,-3.472716 -8.38984,-5.900544 -8.51277,-5.962008 0,0 -1.01415,-0.61464 -3.0732,-1.444404 -0.36878,-0.15366 -0.73756,-0.30732 -1.16781,-0.46098 v 0.122928 c 1.38294,0.522444 2.42783,0.952692 3.10393,1.290744 0.36878,0.184392 0.64537,0.338052 0.82976,0.430248 0.1844,0.10244 0.24586,0.15366 0.24586,0.15366 0,0 0.30732,0.15366 0.79903,0.430248 1.47514,0.860496 4.82493,2.888808 7.71373,5.53176 3.8415,3.503448 4.42541,3.196128 9.09668,8.359104 l 1.16781,1.352208 h 0.10244 v -0.10244 C 206.87907,79.931076 203.40635,76.15104 197.598,70.9266 c -2.24343,-2.028312 -4.67126,-4.486872 -6.66884,-6.76104 m 0.8605,0 h -0.12293 c 2.85807,3.288324 7.19129,7.437144 10.44888,10.510344 v -0.10244 0 C 198.88875,71.530996 194.617,67.412908 191.72819,64.155316" />
      <path d="m 188.15304,64.4401 h -0.36879 c 1.7927,1.22928 3.0732,2.243436 3.94394,2.888808 -1.0244,-0.952692 -1.90538,-1.751724 -3.57515,-2.888808" />
      <path d="m 187.7945,64.438048 h 0.33805 c 1.65953,1.167816 2.55075,1.936116 3.59564,2.91954 -0.86049,-0.676104 -2.18197,-1.659528 -3.93369,-2.91954 m 0.36878,-0.122928 h -0.55318 v 0 0.10244 c 1.81319,1.260012 3.13467,2.274168 3.99516,2.950272 0.46098,0.338052 0.7683,0.61464 0.98343,0.799032 0.21512,0.15366 0.30732,0.245856 0.33805,0.276588 h 0.10244 v -0.10244 0 0 0 0 c -1.65953,-1.567332 -2.52002,-2.45856 -4.76346,-4.025892 v 0 z" />
      <path d="m 147.79168,24.339964 c 0,0.30732 0,0.61464 0,0.92196 0,2.91954 0.82976,6.484452 1.22928,8.051784 0.15366,0.553176 0.21512,0.860496 0.21512,0.860496 v 0.10244 h -0.10244 c -0.39951,-0.184392 -0.92196,-0.706836 -1.3522,-1.167816 -0.24586,-0.276588 -0.43025,-0.553176 -0.58391,-0.706836 2.39709,9.772776 7.80593,14.29038 9.1274,15.273804 0.18439,0.122928 0.27659,0.184392 0.27659,0.184392 v 0.10244 0.10244 c -0.15366,0 -0.46098,-0.10244 -0.8605,-0.215124 -0.39951,-0.10244 -0.89122,-0.245856 -1.3522,-0.430248 -0.70684,-0.215124 -1.35221,-0.430248 -1.65953,-0.553176 3.0732,4.210284 10.7562,7.959588 12.66158,8.850816 0.27659,0.122928 0.43025,0.184392 0.43025,0.184392 v 0.10244 l -0.10244,0.10244 c -0.89123,0 -3.38052,-0.491712 -4.14882,-0.645372 7.62154,5.900544 15.30454,8.236176 17.11772,8.727888 0.15366,0 0.27659,0.10244 0.33806,0.10244 v -0.645372 c -6.26933,-0.92196 -16.10357,-7.437144 -16.10357,-7.437144 v -0.10244 h 0.10244 c 1.29074,0.338052 2.24343,0.430248 2.91954,0.430248 0.58391,0 0.92196,-0.10244 1.10635,-0.122928 -11.24791,-5.808348 -13.33769,-8.75862 -13.33769,-8.75862 v -0.10244 h 0.10244 c 1.50587,0.7683 3.25759,0.983424 4.05663,1.014156 0.10244,0 0.12292,0 0.15366,0 -6.69958,-3.595644 -10.35669,-14.935752 -10.35669,-14.935752 v -0.10244 h 0.10244 c 0.95269,1.014156 1.69026,1.38294 1.93612,1.505868 -1.72099,-6.638112 -1.81319,-10.264488 -1.81319,-10.264488 h 0.10244 0.10244 c 0,0.10244 0.27659,0.430248 0.73757,0.92196 0.36878,0.430248 0.92196,0.983424 1.59806,1.628796 v 0 h 0.10244 c 0,0 0,0.10244 0.10244,0.15366 0.10244,0 0.10244,0.10244 0.15366,0.15366 0.46098,0.399516 0.95269,0.860496 1.50587,1.352208 v -0.15366 h 0.10244 v 0.245856 c 0.49171,0.430248 1.01416,0.860496 1.56733,1.321476 h 0.10244 v 0.10244 c 1.16782,0.952692 2.48929,1.936116 3.96443,2.91954 3.1654,2.15124 6.39226,3.411252 7.80593,3.902964 0.30732,0.122928 0.52244,0.184392 0.64537,0.215124 l -0.15366,-1.07562 v 0 h 0.10244 c 0,0 0.95269,0.10244 5.3781,3.288324 1.81319,1.321476 3.31906,3.0732 4.48687,4.671264 v 0 0.10244 c 0.70684,0.952692 1.26001,1.874652 1.65953,2.581488 v -0.61464 c -1.13708,-1.936116 -3.47272,-5.439564 -5.96201,-7.191288 -2.73515,-1.905384 -5.10151,-3.0732 -6.08493,-3.503448 -0.15366,-0.10244 -0.30732,-0.122928 -0.39952,-0.184392 l 0.73757,1.444404 v 0.10244 h -0.10244 c 0,0 -6.11567,-2.3049 -8.72789,-4.210284 -3.65711,-2.642952 -8.72789,-7.52934 -9.43472,-8.236176" />
      <path d="m 152.85221,32.298528 c 0.39952,0.706836 0.8605,1.475136 1.32148,2.212704 v -0.10244 c -0.49171,-0.737568 -0.92196,-1.444404 -1.32148,-2.120508" />
      <path d="m 154.26588,34.545036 v 0 0 c 0.58391,0.860496 1.16782,1.751724 1.81319,2.61222 v -0.184392 c -0.64537,-0.829764 -1.22928,-1.628796 -1.75172,-2.427828" />
      <path d="m 156.14053,37.110134 v 0 h -0.10244 c 2.19222,2.950272 4.88639,5.716152 7.84691,7.314216 10.47961,5.623956 13.97281,10.018632 14.77184,11.186448 v -0.10244 0 -0.46098 c -0.43024,-0.583908 -0.97318,-1.22928 -1.64928,-1.905384 v 0.215124 h -0.10244 -0.10244 v -0.338052 c -0.49171,-0.491712 -1.01416,-1.014156 -1.58782,-1.5366 v 0.276588 h -0.10244 V 51.39027 c -0.53269,-0.46098 -1.07562,-0.92196 -1.66977,-1.38294 v 0.184392 h -0.10244 v -0.276588 c -0.5122,-0.399516 -1.04489,-0.799032 -1.59807,-1.198548 v 0.338052 h -0.10244 -0.10244 v -0.46098 c -0.52244,-0.368784 -1.04488,-0.706836 -1.59806,-1.07562 v 0.30732 0 h -0.10244 v -0.399516 c -0.52244,-0.338052 -1.04489,-0.676104 -1.59806,-1.014156 v 0.15366 h -0.10244 v 0 -0.245856 c -0.52245,-0.338052 -1.07562,-0.645372 -1.60831,-0.952692 v 0.184392 h -0.10244 -0.10244 v -0.245856 c -0.50196,-0.276588 -0.99367,-0.553176 -1.50587,-0.799032 0,0 -0.10244,0 -0.10244,0 h -0.10244 v -0.10244 c -0.55318,-0.30732 -1.08586,-0.61464 -1.59806,-0.92196 v 0.10244 0 h -0.10244 V 43.39995 c -0.55318,-0.338052 -1.09611,-0.737568 -1.6288,-1.137084 v 0.368784 h -0.10244 v 0 l -0.10244,-0.46098 c -0.55318,-0.430248 -1.07562,-0.891228 -1.59806,-1.352208 v 0 h -0.10244 v -0.10244 c -0.57367,-0.522444 -1.13709,-1.07562 -1.64929,-1.659528 v 0.15366 0 0 -0.30732 c -0.62488,-0.645372 -1.16781,-1.290744 -1.69026,-1.966848" />
    </g>
    <g style="fill:#ffffff">
      <path d="M 36.132076,36.7813 H 65.5426 v 9.926436 h -3.595644 c -1.720992,0 -2.243436,0.676104 -2.243436,2.366364 v 22.403628 c 0,1.07562 0.891228,2.059044 2.366364,2.059044 h 8.482032 c 1.106352,0 2.489292,-0.7683 2.489292,-2.335632 V 63.149356 H 84.780832 V 83.49394 H 36.132076 v -9.926436 h 3.441984 c 1.598064,0 2.427828,-0.522444 2.427828,-2.15124 V 49.0741 c 0,-1.444404 -0.276588,-2.366364 -2.212704,-2.366364 h -3.657108 z" />
      <path d="m 89.902832,36.7813 h 48.361928 v 14.997216 h -12.09817 v -2.489292 c 0,-1.5366 -0.7683,-2.581488 -3.11417,-2.581488 h -10.53084 v 8.4513 h 11.37084 v 9.06594 h -11.37084 v 9.311796 h 11.02255 c 1.45465,0 2.62246,-0.891228 2.62246,-2.550756 V 68.43526 h 12.09817 V 83.49394 H 89.902832 v -9.926436 h 2.61222 c 1.38294,0 2.335632,-0.553176 2.335632,-1.966848 v -22.43436 c 0,-1.505868 -0.245856,-2.45856 -2.181972,-2.45856 h -2.76588 z" />
      <path d="m 162.35864,36.7813 h 49.5195 V 51.778516 H 199.75948 V 49.22776 c 0,-1.352208 -0.82976,-2.520024 -2.67368,-2.520024 h -10.96108 v 8.4513 h 10.13132 v 9.06594 h -10.13132 v 6.730308 c 0,1.874652 0.78879,2.61222 3.21662,2.61222 h 3.8415 v 9.926436 h -30.8242 v -9.926436 h 4.08736 c 1.17806,0 1.99758,-0.7683 1.99758,-1.966848 v -22.43436 c 0,-1.413672 -0.24586,-2.45856 -2.17173,-2.45856 h -3.91321 z" />
      <path d="m 239.92621,49.063856 c 0,-1.751724 0.55318,-2.335632 2.24344,-2.335632 h 3.62637 v -9.957168 h -29.22613 v 9.957168 h 3.71857 c 1.96685,0 2.24344,0.891228 2.24344,2.335632 v 22.403628 c 0,1.751724 -1.07562,2.120508 -2.3049,2.120508 h -3.65711 v 9.895704 h 29.22613 v -9.895704 h -3.56491 c -1.41367,0 -2.3049,-0.553176 -2.3049,-2.181972 z" />
      <path d="m 288.8618,36.7813 h 10.35668 v 16.410888 h -10.41815 c 0,0 -2.981,-7.160556 -11.40157,-7.160556 -6.30006,0 -11.21718,4.548336 -11.21718,12.968904 0,14.259648 7.89813,15.458196 11.30938,15.458196 7.00689,0 8.63569,-4.947852 8.63569,-6.945432 h -6.51518 v -8.60496 h 22.40362 c 0,0 -0.10244,3.503448 -0.10244,5.99274 0,1.198548 -1.16781,19.422624 -26.27586,19.422624 -18.13188,0 -27.62806,-10.356684 -27.62806,-25.108044 0,-9.803508 7.683,-23.141196 26.09146,-23.141196 10.29522,0 14.75136,4.210284 14.75136,4.210284 V 36.7813 Z" />
      <path d="m 356.8205,73.575698 c -1.99758,0 -2.61222,-1.782456 -3.81077,-4.671264 -0.98342,-2.366364 -12.35426,-32.11494 -12.35426,-32.11494 h -18.00895 c 0,0 -12.23134,33.067632 -12.78452,34.481304 -0.70683,1.659528 -1.72099,2.3049 -3.53418,2.3049 h -2.61222 v 9.895704 h 22.03485 V 74.06741 h -3.04247 c -1.32148,0 -1.6288,-1.014156 -1.19855,-2.427828 0.52245,-1.628796 1.41367,-4.179552 1.41367,-4.179552 h 13.36842 c 0,0 0.73757,2.3049 1.44441,4.425408 0.52244,1.598064 -1.16782,2.181972 -2.18197,2.181972 h -2.61222 v 9.403992 h 26.52171 v -9.895704 z m -31.74616,-12.538656 4.6098,-13.737204 h 0.15366 l 4.39468,13.737204 z" />
      <path d="m 419.02206,73.575698 c -1.81319,0 -2.08978,-0.860496 -3.01174,-2.059044 -0.89122,-1.198548 -6.48445,-9.926436 -6.48445,-9.926436 0,0 8.17471,-2.274168 8.17471,-11.002056 0,-8.697156 -7.28348,-11.801088 -10.38741,-12.60012 -3.10393,-0.799032 -9.80351,-1.198548 -11.6167,-1.198548 H 386.692 363.76592 v 9.926436 h 3.13467 c 1.99758,0 2.24343,0.983424 2.24343,2.335632 v 22.188504 c 0,0.983424 -0.15366,2.335632 -2.33563,2.335632 h -3.04247 v 9.895704 h 28.11978 v -9.895704 h -2.85807 c -1.96685,0 -2.21271,-1.07562 -2.21271,-2.243436 V 63.77219 h 6.26933 l 11.5245,19.699212 h 17.64017 V 73.575698 Z M 393.20718,55.689674 h -6.39226 v -9.619116 h 6.94544 c 2.02831,0 5.62395,0.737568 5.62395,4.91712 0,3.134664 -2.3049,4.701996 -6.17713,4.701996" />
      <path d="m 448.24819,36.071392 c -19.60701,0 -26.70611,13.122564 -26.70611,23.632908 0,13.952328 9.83424,24.616332 26.52172,24.616332 14.87429,0 26.58318,-8.14398 26.58318,-24.032424 0,-15.089412 -11.18645,-24.216816 -26.39879,-24.216816 m 0.30732,38.384268 c -4.30248,0 -8.82008,-2.550756 -8.82008,-15.550392 0,-8.021052 3.0732,-12.999636 8.32837,-12.999636 4.97858,0 8.60496,3.288324 8.60496,13.890864 0,11.463036 -3.78004,14.659164 -8.11325,14.659164" />
      <path d="m 176.15731,44.454056 0.73757,8.574228 c 0.64537,0.676104 1.19854,1.290744 1.65952,1.905384 l -0.6761,-7.83666 h -0.10244 c -0.27659,-0.522444 -0.64537,-1.137084 -1.10635,-1.813188 -0.15366,-0.276588 -0.36879,-0.522444 -0.55318,-0.799032 m -13.79867,-0.799032 v 3.0732 h 3.90297 c 1.93611,0 2.18197,1.044888 2.18197,2.427828 v 9.895704 c 0.12293,0.10244 0.24586,0.122928 0.36878,0.184392 3.13467,1.69026 7.03763,3.503448 10.0801,4.025892 V 49.063856 c 0,0 -0.27659,-0.706836 -0.8605,-1.751724 l 0.67611,7.805928 c 0,0 0,0.10244 0,0.10244 v 0 0.706836 0 h -0.10244 c -0.49171,-0.799032 -3.74931,-5.3781 -14.84356,-11.340108 -0.49171,-0.276588 -0.98342,-0.583908 -1.47513,-0.92196 m 0.12292,-6.883968 h -0.12292 v 6.177132 c 0.21512,0.15366 0.43024,0.30732 0.6761,0.46098 z m 4.36395,0 h -0.46098 l 0.10244,0.61464 v 0.10244 h -0.10244 c 0,0 0,0 -0.10244,0 0,0.122928 0,0.184392 -0.10244,0.184392 v 0 c -0.79903,-0.215124 -1.56733,-0.491712 -2.33563,-0.829764 h -1.32148 l 0.55318,6.699576 c 0.52244,0.338052 1.04488,0.645372 1.59806,0.952692 l -0.58391,-7.099092 v 0 h 0.10244 l 0.61464,7.191288 c 0,0 0.10244,0 0.12293,0.10244 0.49171,0.245856 0.95269,0.522444 1.4444,0.7683 l -0.64537,-7.37568 h 0.10244 0.10244 l 0.64537,7.437144 c 0.52245,0.30732 1.07562,0.61464 1.59807,0.952692 l -0.7683,-8.91228 h 0.12293 l 0.7683,9.004476 c 0.52244,0.338052 1.07562,0.676104 1.59806,1.014156 l -0.79903,-9.127404 h 0.12293 l 0.7683,9.188868 c 0.55317,0.368784 1.07562,0.737568 1.59806,1.106352 l -0.7683,-9.2196 h 0.10244 l 0.79903,9.311796 c 0.55318,0.399516 1.07562,0.799032 1.59807,1.198548 l -0.79904,-9.2196 h 0.12293 l 0.79903,9.342528 c 0.55318,0.46098 1.13709,0.92196 1.65953,1.38294 l -0.79903,-8.973744 v 0 h 0.10244 l 0.79903,9.096672 c 0.61464,0.522444 1.13709,1.014156 1.6288,1.505868 l -0.73757,-8.60496 c -1.93612,-2.581488 -4.94785,-5.623956 -9.18887,-7.52934" />
    </g>
    <g style="fill:#10649e">
      <path d="m 147.71997,24.17093 v 0.10244 c 0,0.30732 0,0.676104 0,1.044888 0,3.53418 1.19854,8.021052 1.41367,8.820084 -0.36879,-0.215124 -0.79903,-0.676104 -1.19855,-1.106352 -0.21512,-0.215124 -0.39952,-0.46098 -0.52244,-0.61464 -0.15366,-0.184392 -0.21513,-0.276588 -0.21513,-0.276588 h -0.10244 v 0.10244 c 2.42783,10.264488 8.17471,14.843556 9.3118,15.67332 -0.15366,-0.10244 -0.33805,-0.10244 -0.58391,-0.15366 -0.58391,-0.184392 -1.38294,-0.430248 -2.02831,-0.676104 -0.64537,-0.215124 -1.13709,-0.368784 -1.13709,-0.368784 h -0.10244 v 0.10244 c 3.1654,4.425408 11.43231,8.389836 12.99964,9.096672 -0.58391,0 -1.47514,-0.184392 -2.3049,-0.30732 -0.95269,-0.184392 -1.75172,-0.368784 -1.75172,-0.368784 h -0.10244 v 0.10244 c 8.78935,6.945432 17.73236,9.004476 17.73236,9.004476 h 0.10244 v -0.10244 -0.7683 -0.10244 c -0.10244,0 -0.18439,0 -0.27659,0 -3.0732,-0.522444 -6.94543,-2.335632 -10.11083,-4.025892 -0.12292,-0.10244 -0.24585,-0.122928 -0.36878,-0.184392 -1.47514,-0.799032 -2.76588,-1.567332 -3.71857,-2.15124 -0.49171,-0.30732 -0.92196,-0.583908 -1.19855,-0.737568 -0.10244,-0.10244 -0.12293,-0.10244 -0.15366,-0.122928 1.13708,0.276588 1.99758,0.338052 2.61222,0.338052 0.89123,0 1.26001,-0.15366 1.26001,-0.15366 h 0.10244 v -0.10244 c -5.68542,-2.950272 -9.03521,-5.132244 -10.97132,-6.60738 -0.98343,-0.737568 -1.59807,-1.290744 -1.96685,-1.659528 -0.15366,-0.15366 -0.24586,-0.276588 -0.33805,-0.368784 1.99758,0.952692 4.27175,0.952692 4.27175,0.952692 h 0.10244 v -0.10244 c -3.38052,-1.720992 -6.02348,-5.439564 -7.80593,-8.75862 -0.89123,-1.659528 -1.59807,-3.22686 -2.02831,-4.363944 -0.15366,-0.368784 -0.27659,-0.706836 -0.39952,-0.952692 0,-0.15366 -0.10244,-0.30732 -0.12293,-0.399516 0,-0.122928 -0.10244,-0.215124 -0.10244,-0.276588 1.10635,1.137084 1.90539,1.38294 1.90539,1.38294 h 0.10244 v -0.10244 c -0.21513,-0.860496 -0.39952,-1.659528 -0.58391,-2.427828 -0.49171,-2.181972 -0.79903,-3.933696 -0.95269,-5.22444 -0.15366,-0.891228 -0.21513,-1.5366 -0.24586,-1.99758 0,-0.184392 0,-0.338052 0,-0.46098 0.12293,0.15366 0.33805,0.430248 0.64537,0.7683 0.39952,0.46098 0.98343,1.044888 1.75173,1.782456 0,-0.10244 -0.10244,-0.122928 -0.10244,-0.184392 v 0 c -0.67611,-0.645372 -1.19855,-1.198548 -1.59807,-1.628796 -0.46098,-0.491712 -0.70683,-0.829764 -0.73757,-0.952692 h -0.10244 l -0.10244,0.10244 c 0,0 0.10244,3.626376 1.81319,10.264488 -0.24585,-0.122928 -0.98342,-0.491712 -1.93611,-1.505868 h -0.10244 v 0.10244 c 0,0 3.6571,11.340108 10.38741,14.90502 -0.10244,0 -0.12293,0 -0.18439,0 -0.7683,-0.10244 -2.55076,-0.245856 -4.05662,-1.014156 h -0.10244 v 0.10244 c 0,0 2.08977,2.981004 13.33768,8.789352 -0.18439,0.10244 -0.52244,0.122928 -1.10635,0.122928 -0.6761,0 -1.62879,-0.10244 -2.91954,-0.430248 h -0.10244 v 0.10244 c 0,0 9.83424,6.484452 16.10357,7.406412 v 0.676104 c -0.10244,0 -0.18439,0 -0.33805,-0.10244 -1.81319,-0.491712 -9.49619,-2.796612 -17.11773,-8.727888 0.7683,0.15366 3.2576,0.676104 4.14882,0.676104 l 0.10244,-0.10244 v -0.10244 c 0,0 -0.15366,-0.10244 -0.43024,-0.184392 -1.90539,-0.891228 -9.55766,-4.671264 -12.66159,-8.850816 0.30732,0.10244 0.95269,0.338052 1.65953,0.553176 0.46098,0.15366 0.95269,0.30732 1.35221,0.430248 0.39951,0.122928 0.70683,0.184392 0.86049,0.184392 v 0 -0.10244 c 0,0 -0.12292,-0.10244 -0.30732,-0.215124 -1.32147,-0.952692 -6.7303,-5.470296 -9.1274,-15.243072 0.12293,0.15366 0.36878,0.430248 0.58391,0.676104 0.43025,0.491712 0.95269,1.014156 1.35221,1.198548 h 0.10244 v -0.10244 c 0,0 -0.10244,-0.338052 -0.24586,-0.860496 -0.39952,-1.567332 -1.22928,-5.132244 -1.22928,-8.051784 0,-0.30732 0,-0.61464 0,-0.92196 0.70684,0.676104 5.77762,5.593224 9.43472,8.236176 2.61222,1.905384 8.75862,4.210284 8.75862,4.210284 h 0.10244 v -0.10244 l -0.73756,-1.413672 c 0.10244,0 0.21512,0.10244 0.39951,0.15366 0.98343,0.46098 3.34979,1.598064 6.08494,3.53418 2.48929,1.720992 4.82492,5.255172 5.96201,7.191288 v 0.61464 c -0.39952,-0.737568 -0.9527,-1.628796 -1.6288,-2.61222 v 0.215124 c 0.70684,1.014156 1.26001,1.966848 1.65953,2.673684 h 0.10244 v -0.10244 0 l -0.10244,-0.829764 v 0 0 h -0.10244 0.10244 v 0 0 h -0.10244 0.10244 v 0 c -1.13709,-1.936116 -3.47272,-5.470296 -5.99274,-7.22202 -1.22928,-0.860496 -2.33563,-1.567332 -3.31906,-2.120508 -1.96685,-1.106352 -3.31905,-1.628796 -3.31905,-1.628796 h -0.10244 v 0.10244 l 0.73756,1.444404 c -0.18439,-0.10244 -0.49171,-0.184392 -0.89122,-0.338052 -1.81319,-0.737568 -5.77762,-2.397096 -7.71374,-3.810768 -1.96684,-1.413672 -4.33321,-3.503448 -6.23859,-5.22444 -0.92196,-0.860496 -1.75173,-1.628796 -2.33563,-2.181972 -0.58391,-0.583908 -0.92196,-0.92196 -0.92196,-0.92196 h -0.10244 z" />
      <path d="m 150.48585,27.29638 c 0,0.10244 0.10244,0.15366 0.10244,0.245856 0.49171,0.430248 0.98342,0.891228 1.56733,1.413672 v -0.15366 c -0.55317,-0.491712 -1.04489,-0.92196 -1.50587,-1.352208 -0.10244,-0.10244 -0.10244,-0.10244 -0.15366,-0.15366" />
      <path d="m 152.2683,28.897514 v 0.15366 c 0.49171,0.430248 1.01416,0.829764 1.56733,1.290744 v -0.122928 0 c -0.55317,-0.46098 -1.07562,-0.92196 -1.56733,-1.321476" />
      <path d="m 153.94832,30.285578 v 0.15366 c 1.13709,0.891228 2.45856,1.874652 3.90297,2.858076 4.21028,2.858076 8.54349,4.14882 8.54349,4.14882 h 0.10244 v -0.10244 l -0.10244,-0.61464 -0.10244,-0.46098 c 0.30732,0.10244 1.5366,0.522444 5.28591,3.22686 1.78245,1.321476 3.28832,3.0732 4.45614,4.671264 v -0.10244 h 0.10244 c -1.16782,-1.628796 -2.67369,-3.38052 -4.45614,-4.671264 -4.45614,-3.257592 -5.3781,-3.288324 -5.40883,-3.288324 v 0 0.10244 l 0.15366,1.07562 c -0.12293,0 -0.33806,-0.122928 -0.64538,-0.215124 -1.4444,-0.522444 -4.67126,-1.751724 -7.80592,-3.902964 -1.47514,-1.014156 -2.82735,-1.99758 -3.96443,-2.91954" />
      <path d="m 150.36292,27.105838 v 0 0 c 1.50587,4.30248 6.82251,13.798668 13.49135,17.394312 11.09425,5.99274 14.38258,10.541076 14.84356,11.340108 h 0.10244 l 0.10244,-0.10244 h -0.10244 0.10244 -0.10244 0.10244 l -0.10244,-0.676104 v 0 c 0,0 0,-0.10244 -0.10244,-0.10244 l 0.10244,0.491712 h -0.10244 v 0 0.10244 c -0.79904,-1.167816 -4.30248,-5.562492 -14.7821,-11.186448 -2.95027,-1.598064 -5.65468,-4.363944 -7.86739,-7.314216 -0.64537,-0.860496 -1.26001,-1.720992 -1.81319,-2.61222 v 0 0 c -0.46098,-0.737568 -0.92196,-1.505868 -1.32147,-2.212704 0.39951,0.676104 0.82976,1.38294 1.32147,2.120508 V 34.10249 c -0.10244,-0.10244 -0.10244,-0.15366 -0.15366,-0.245856 -0.61464,-0.92196 -1.10635,-1.813188 -1.56733,-2.61222 v 0.122928 h -0.10244 v -0.368784 c -0.39951,-0.706836 -0.73757,-1.38294 -0.98342,-1.936116 -0.30732,-0.61464 -0.52245,-1.106352 -0.67611,-1.444404 0,-0.10244 0,-0.10244 -0.10244,-0.15366 0,-0.10244 -0.10244,-0.184392 -0.10244,-0.245856 l -0.10244,-0.15366 h -0.10244 z" />
      <path d="m 154.28637,34.386256 v 0.15366 0 c 0.52245,0.799032 1.10635,1.598064 1.75173,2.427828 V 36.75262 c -0.61464,-0.799032 -1.16782,-1.598064 -1.69026,-2.366364" />
      <path d="m 156.12004,36.908328 v 0.184392 c 0.52245,0.686348 1.07562,1.352208 1.65953,1.99758 v -0.184392 c -0.61464,-0.635128 -1.16781,-1.321476 -1.69026,-1.99758" />
      <path d="m 157.92299,39.039072 v 0.184392 c 0.55317,0.553176 1.07562,1.106352 1.65953,1.628796 V 40.6986 c -0.58391,-0.553176 -1.13709,-1.106352 -1.65953,-1.659528" />
      <path d="m 159.69521,40.80822 v 0.15366 0 c 0.52244,0.46098 1.04488,0.92196 1.59806,1.352208 v -0.15366 C 160.74009,41.73018 160.21765,41.2692 159.69521,40.80822" />
      <path d="m 161.41619,42.249544 v 0.163904 c 0.52245,0.389272 1.07562,0.758056 1.6288,1.12684 v -0.15366 c -0.21512,-0.122928 -0.43025,-0.266344 -0.64537,-0.420004 -0.30732,-0.225368 -0.64537,-0.471224 -0.95269,-0.71708" />
      <path d="m 163.14744,43.478828 v 0.122928 c 0.52244,0.338052 1.04488,0.645372 1.59806,0.92196 v -0.122928 c -0.52244,-0.276588 -1.04489,-0.583908 -1.56733,-0.92196" />
      <path d="m 164.8377,44.474544 v 0.122928 0 c 0,0 0.10244,0 0.10244,0.10244 0.52244,0.245856 0.98342,0.522444 1.50586,0.799032 v -0.15366 c -0.46098,-0.245856 -0.95269,-0.522444 -1.41367,-0.7683 -0.10244,0 -0.10244,0 -0.15366,-0.10244" />
      <path d="m 166.52795,45.376014 v 0.122928 c 0.55318,0.30732 1.07562,0.645372 1.6288,0.952692 v -0.15366 c -0.52245,-0.30732 -1.04489,-0.61464 -1.59807,-0.92196" />
      <path d="m 168.24894,46.383004 v 0.122928 c 0.55318,0.338052 1.07562,0.676104 1.59807,1.014156 V 47.39716 c -0.52245,-0.338052 -1.04489,-0.676104 -1.59807,-1.014156" />
      <path d="m 169.95969,47.473986 v 0.15366 c 0.55317,0.338052 1.07562,0.706836 1.59806,1.065376 v -0.143416 c -0.52244,-0.338052 -1.04489,-0.706836 -1.59806,-1.07562" />
      <path d="m 171.66019,48.639756 v 0.15366 c 0.55318,0.40976 1.10635,0.809276 1.59807,1.208792 v -0.163904 c -0.52245,-0.399516 -1.04489,-0.799032 -1.59807,-1.198548" />
      <path d="m 173.38119,49.932544 v 0.15366 c 0.61464,0.46098 1.13708,0.92196 1.65953,1.38294 v -0.15366 c -0.52245,-0.46098 -1.07562,-0.92196 -1.65953,-1.38294" />
      <path d="m 175.16364,51.395386 v 0.15366 c 0.61464,0.532688 1.13709,1.044888 1.6288,1.5366 v -0.184392 c -0.49171,-0.491712 -1.04489,-0.983424 -1.6288,-1.505868" />
      <path d="m 176.89488,53.027262 v 0.194636 c 0.6761,0.676104 1.22928,1.321476 1.65953,1.905384 v -0.215124 c -0.46098,-0.594152 -1.01416,-1.198548 -1.65953,-1.884896" />
      <path d="m 152.15562,28.632194 v 0.15366 0.184392 l 0.12293,2.089776 v 0.399516 h 0.12292 v -0.15366 l -0.15366,-2.059044 V 29.03171 28.87805 28.632194 h -0.12292 z" />
      <path d="m 153.83563,30.2108 v 0 l 0.36879,3.99516 v 0.215124 0.10244 0.10244 0 h 0.10244 v -0.15366 l -0.27659,-3.718572 v -0.215124 -0.15366 -0.10244 h -0.10244 z" />
      <path d="m 155.63858,31.822178 h -0.10244 l 0.43025,4.906876 v 0.215124 0.225368 h 0.10244 v 0 -0.215124 l -0.39951,-4.91712 v -0.174148 0 z" />
      <path d="m 157.38006,33.23073 h -0.10244 l 0.46098,5.654688 v 0.215124 0.276588 h 0.10244 0.10244 v -0.15366 -0.184392 l -0.52244,-5.777616 v 0 0 z" />
      <path d="m 162.49181,36.431978 h -0.10244 l 0.58391,6.976164 v 0.122928 0.184392 h 0.10244 0.10244 v -0.10244 -0.15366 l -0.55318,-6.699576 v -0.368784 h -0.10244 z" />
      <path d="m 159.09081,34.471278 h -0.10244 l 0.55317,6.207864 v 0.184392 0.122928 h 0.10244 0.10244 v -0.15366 l -0.55317,-6.330792 h -0.10244 z" />
      <path d="m 160.72984,35.466994 0.58391,6.699576 v 0.15366 l 0.10244,0.46098 v 0 0 -0.368784 -0.15366 l -0.55317,-6.791772 h -0.12293 z" />
      <path d="m 164.18208,37.322184 h -0.10244 l 0.58391,7.06836 v 0.15366 0.10244 h 0.12292 v -0.15366 l -0.61464,-7.160556 h -0.10244 z" />
      <path d="m 165.84161,37.926582 h -0.10244 l 0.64537,7.344948 v 0.15366 0.245856 h 0.10244 v 0 -0.15366 -0.15366 z" />
      <path d="m 167.35772,37.406186 0.7683,8.91228 v 0.122928 0.215124 h 0.10244 0.10244 V 46.53359 46.37993 l -0.7683,-8.973744 h -0.12293 z" />
      <path d="m 169.05822,38.286138 0.78879,9.096672 v 0.15366 0.399516 h 0.10244 v 0 -0.338052 -0.122928 l -0.79904,-9.2196 h -0.12292 z" />
      <path d="m 170.75872,39.335124 0.77855,9.2196 v 0.15366 0.46098 h 0.10244 0.10244 V 48.831312 48.64692 l -0.75806,-9.281064 h -0.13317 z" />
      <path d="m 172.47972,40.585916 0.7683,9.250332 v 0.15366 0.276588 h 0.12293 v -0.184392 -0.15366 l -0.7683,-9.342528 z" />
      <path d="m 174.30315,42.29257 h -0.10244 l 0.7683,8.983988 v 0.184392 0.399516 h 0.12293 v -0.276588 -0.15366 l -0.82977,-9.106916 v 0 z" />
      <path d="m 176.10609,44.14673 h -0.10244 l 0.7683,8.768864 v 0.174148 0.317564 h 0.10244 0.10244 V 53.21267 53.028278 l -0.70684,-8.574228 v -0.10244 -0.20488 0 0 z" />
      <path d="m 177.89879,46.976128 v 0 l 0.6761,7.898124 v 0.245856 0.46098 h 0.10244 0.10244 v -0.46098 l -0.6761,-7.83666 v -0.30732 h -0.10244 z" />
    </g>
    <g style="fill:#80b1c7">
      <path d="m 164.18208,37.322184 h 0.10244 z m 0.6761,7.129824 -0.61464,-7.160556 z" />
      <path d="m 165.84161,37.926582 h 0.10244 z m 0.6761,7.437144 -0.61464,-7.437144 z" />
      <path d="m 174.30315,42.324332 h 0.10244 z m 0.82976,9.06594 -0.7683,-9.096672 z" />
    </g>
    <path style="fill:#73a5c1" d="m 159.09081,34.471278 h 0.10244 z m 0.61464,6.330792 -0.55318,-6.330792 z" />
  </g>
</svg>