<svg width="150" height="150" xmlns="http://www.w3.org/2000/svg">
  <g fill="#8f98a9">
    <path d="m 112.84,42.33 -12.54,-7.46 1.89,-1.26 12.06,7.19 a 13.2,13.2 0 0 0 -1.41,1.58" />
    <path d="m 115.83,129.52 -5.15,-3.63 c -3.38,-2.41 -5.15,-6.49 -5.15,-11 V 64.41 c 0,-7 1.48,-11.79 3.83,-15.11 a 32.81,32.81 0 0 0 -1.92,12.09 l 0.15,51.66 c 0,5.59 1.62,9.22 5.44,11.94 l 4.71,3.33 z" />
    <path d="m 74.14,129.06 a 8.85,8.85 0 0 1 -0.8,0.46 H 72.05 V 45.18 c 0,-4.08 -0.32,-4.08 -2.91,-5.9 l -3.72,-2.72 2.43,-1.21 c 1.94,1.51 4.85,3.63 4.85,3.78 1.13,1.06 1.44,1.66 1.44,4.08 z" />
    <path d="M 12.49,24.89 A 10.21,10.21 0 0 0 13,34.11 11.26,11.26 0 0 0 20.08,38.8 C 10.56,39.53 6.37,32.66 12.49,24.9" />
    <path d="m 34.91,98.13 a 32.21,32.21 0 0 0 0.87,-8 V 46.48 c 0,-5.25 -0.25,-5.85 -1.75,-7.5 h 0.26 c 2.11,-0.45 3.23,0 3.23,4.5 v 43.84 c 0,5.11 -0.74,8.41 -2.61,10.82" />
    <path d="m 38.66,129.53 c -1.25,-4.13 -5,-7.62 -11.6,-8.57 a 16.8,16.8 0 0 1 2.83,-0.16 c 8.14,0.15 10.49,5.23 11,6.82 l 0.16,0.47 z" />
  </g>
  <g fill="#1a171b">
    <path d="m 43.49,127.32 c -1.53,-4.28 -6,-8.7 -13.89,-9 -7.49,-0.16 -18.17,2.75 -27,9.46 l -1.7,-2.14 c 6.41,-7 21.37,-18.3 37.09,-18.46 8.24,0 14,2.75 18.16,7.17 l 6.85,-3.81 2,4 z" />
    <path d="m 137.65,33.8 c -6,3.51 -8,8.24 -8,15.57 v 58.43 c 0,3.67 0.47,5.34 2.45,6.41 l 2,1.07 5.49,-3.21 1.83,3.67 -19.08,11.44 -6.56,-4.43 c -2.91,-2 -4.13,-4.42 -4.13,-9.15 V 61.42 c 0,-9.76 3.06,-15 7.33,-18.15 l 2.45,-1.84 -18,-10.53 -8.06,4.9 v 76 c 0,6.4 -0.92,7.32 -6.57,10.21 0,0 -4.42,2.14 -10.51,5.35 H 77.06 V 43.11 c 0,-4.11 -0.46,-5 -2.75,-6.86 l -6.4,-5.19 -7.79,4.42 v 43.64 c 0,7.62 -1.22,13.11 -7.33,16.92 L 37.54,105.66 36,103.07 c 4.74,-3.67 5.8,-8.86 5.8,-15 v -44.5 c 0,-6.56 -0.9,-9.15 -7.78,-7.93 -2.59,0.45 -6.56,1.06 -9,1.37 -10.08,1.37 -14.35,-5.8 -7.48,-14.8 0,0 1.68,-2.29 5.95,-7.79 l 3.36,2.3 -2.45,3.51 c -3.2,4.58 -0.6,7 4.59,5.18 2.44,-0.91 7.17,-2.74 10.53,-4.12 14.49,-5.64 19.84,3.67 20.6,9.16 l 18,-10.83 15.57,11.89 19.22,-11.89 14.81,8.39 c 5,2.89 7.48,1.67 11,-0.16 l 2.9,-1.52 2.29,3.82 z" />
  </g>
</svg>