<svg width="178" height="30" xmlns="http://www.w3.org/2000/svg">
  <g fill="#ffffff">
    <path d="M176.755 18.331C176.084 17.3357 175.278 16.5587 174.338 16C172.838 15.1042 171.188 14.5166 169.628 13.7493C168.745 13.3158 167.797 12.8663 167.094 12.1503C166.234 11.2802 166.118 9.24137 167.338 8.61527C168.812 7.85754 170.575 8.81113 171.792 9.64913C173.294 10.683 174.543 12.0026 175.555 13.5213H176.251V8.51895C175.272 8.26851 174.235 8.06302 173.143 7.90891C172.052 7.75479 170.86 7.67773 169.573 7.67773C168.228 7.67773 166.918 7.92175 165.646 8.413C164.372 8.90424 163.306 9.68124 162.452 10.744C161.597 11.81 161.17 13.1681 161.17 14.8184C161.17 16.2472 161.485 17.432 162.118 18.3695C162.747 19.3071 163.495 20.0423 164.365 20.5753C165.755 21.4261 167.271 22.0362 168.754 22.6944C169.865 23.1888 170.992 23.9402 171.567 25.0479C172.145 26.1588 172.119 28.2265 170.697 28.6824C169.12 29.1865 167.213 28.326 165.954 27.4013C164.327 26.2037 163.267 24.5085 162.243 22.8132C162.224 22.7779 162.195 22.749 162.169 22.7169H161.421V28.3902C162.541 28.6985 163.745 28.9521 165.033 29.148C166.32 29.3438 167.679 29.4434 169.107 29.4434C170.815 29.4434 172.321 29.1705 173.625 28.6246C174.928 28.0788 175.943 27.2536 176.672 26.1459C177.401 25.0382 177.764 23.6737 177.764 22.049C177.764 20.5625 177.43 19.3231 176.755 18.331Z"/>
    <path d="M39.5736 9.27718C38.1738 8.35248 36.4078 7.89014 34.2791 7.89014C31.9834 7.89014 29.9864 8.33964 28.2911 9.23544C26.5958 10.1312 25.2923 11.4348 24.3836 13.1429C23.4718 14.851 23.019 16.8963 23.019 19.2754C23.019 21.2661 23.3401 23.0352 23.9855 24.5892C24.6308 26.1432 25.6454 27.3697 27.0325 28.2655C28.4195 29.1613 30.1886 29.6108 32.3463 29.6108C34.5585 29.6108 36.5202 29.1549 38.2283 28.2463C39.9365 27.3376 41.2657 26.0276 42.2193 24.3163C43.1697 22.6082 43.6481 20.5918 43.6481 18.2673C43.6481 16.3344 43.3174 14.5845 42.6592 13.0145C42.0042 11.4476 40.9735 10.1987 39.5736 9.27718ZM36.0707 27.2573C35.9712 27.7614 35.7914 28.1114 35.5249 28.3073C35.2584 28.5031 34.902 28.6026 34.4525 28.6026C33.6948 28.6026 33.1361 28.2527 32.7733 27.5527C32.4073 26.8528 32.1022 25.5717 31.8486 23.7095C31.5982 21.8472 31.1294 17.2784 30.6542 12.2632C30.5707 11.3963 30.5771 10.7092 30.6735 10.2051C30.7698 9.701 30.9528 9.35103 31.2193 9.15517C31.4858 8.95931 31.8422 8.86299 32.2917 8.86299C33.0494 8.86299 33.6081 9.21296 33.9709 9.91291C34.3337 10.6128 34.6419 11.8939 34.8956 13.7562C35.146 15.6184 35.6148 20.1905 36.09 25.2025C36.1735 26.0662 36.167 26.7533 36.0707 27.2573Z"/>
    <path d="M64.7134 25.3576C64.2093 25.3576 63.7052 25.226 63.5222 24.9595C63.3392 24.693 63.4098 23.6206 63.4098 22.7248V8.43701H56.5195H54.3362V8.84799L54.7986 8.97321C55.2449 9.08558 55.5338 9.24612 55.6591 9.45482C55.7843 9.66352 55.8485 10.0649 55.8485 10.6524V24.9884C55.6559 25.1297 55.4728 25.2517 55.3027 25.3416C54.8821 25.5663 54.3651 25.6787 53.7487 25.6787C53.1611 25.6787 52.7598 25.4829 52.5511 25.0911C52.3424 24.6994 52.2364 24.0284 52.2364 23.0748V8.43701H45.3461H43.1628V8.84799L43.6252 8.97321C44.0715 9.08558 44.3604 9.24612 44.4857 9.45482C44.6109 9.66352 44.6751 10.0649 44.6751 10.6524V23.1807C44.6751 25.5053 45.115 27.1717 45.9979 28.1799C46.8809 29.1881 48.0079 29.6921 49.3788 29.6921C50.6664 29.6921 51.9635 29.1881 53.2638 28.1799C54.0697 27.557 54.9334 26.7832 55.8613 25.8617C55.9256 26.8089 56.2145 27.6469 56.7315 28.3693C57.319 29.1945 58.202 29.6087 59.3771 29.6087C60.4977 29.6087 61.5283 29.294 62.4658 28.6647C63.4034 28.0354 64.3762 27.1171 65.3876 25.9131V25.2742C65.2463 25.3031 65.1211 25.3223 65.0088 25.3384C64.8964 25.3512 64.7968 25.3576 64.7134 25.3576Z"/>
    <path d="M133.415 2.59596C131.482 1.37908 129.229 0.769043 126.65 0.769043C123.989 0.769043 121.6 1.40798 119.487 2.68265C117.371 3.95731 115.711 5.78423 114.507 8.1666C111.325 14.4564 112.276 23.9249 118.662 27.9512C120.595 29.1681 122.849 29.7781 125.427 29.7781C128.143 29.7781 130.558 29.1488 132.674 27.887C139.085 24.0662 140.903 15.1403 138.193 8.51978C137.22 6.1342 135.611 3.983 133.415 2.59596ZM130.275 26.5288C129.938 27.4664 129.492 28.0764 128.93 28.3558C128.368 28.6351 127.71 28.7764 126.955 28.7764C125.918 28.7764 125.106 28.2434 124.518 27.1806C123.931 26.1179 123.433 24.185 123.025 21.382C122.621 18.5823 122.062 14.2349 121.558 8.29824C121.446 6.78598 121.494 5.54663 121.706 4.5802C121.914 3.61376 122.3 2.89777 122.862 2.43863C123.42 1.97628 124.165 1.74511 125.087 1.74511C126.178 1.74511 127.032 2.30699 127.649 3.42433C128.265 4.54488 128.776 6.51306 129.184 9.32889C129.588 12.1447 130.118 16.4696 130.567 22.3517C130.709 24.1946 130.609 25.5881 130.275 26.5288Z"/>
    <path d="M24.0742 2.45199L24.5365 2.28503V1.83231H21.8459H21.0689H17.7907V2.28503L18.42 2.45199C19.2324 2.67674 19.8135 2.84691 20.1635 3.63033C20.5134 4.41696 20.7318 5.32239 20.8153 6.48468C20.8987 7.64697 20.9405 9.76285 20.9405 12.0328V14.0588L20.8024 17.9663L8.16813 1.8291H2.64565H0.292178V2.28182L0.712785 2.44878C1.30035 2.67353 1.72738 3.17761 1.99387 3.96104C2.26036 4.74446 2.4209 5.72695 2.47869 6.90208C2.53328 8.08042 2.56217 8.00336 2.56217 10.2701V12.7842V17.2632V18.1878C2.56217 20.4 2.52686 23.2159 2.45622 24.3653C2.38558 25.5148 2.20578 26.4748 1.91039 27.2421C1.615 28.0127 1.14624 28.1765 0.504087 28.398L0 28.565V29.0177H2.6906H4.13865H6.74577V28.565L6.15821 28.398C5.34589 28.1733 4.75832 28.0031 4.3923 27.2197C4.02948 26.4362 3.80473 25.4634 3.72125 24.3011C3.63777 23.1388 3.59603 20.2877 3.59603 18.0177V17.2632V10.0069L17.7329 29.2328H21.9775V14.0556V11.9044C21.9775 9.66332 22.0129 7.56991 22.0835 6.42047C22.1541 5.27102 22.3339 4.37843 22.6293 3.60785C22.9183 2.83728 23.4031 2.67353 24.0742 2.45199Z"/>
    <path d="M98.3193 23.9387C97.6483 24.3047 96.8681 24.6932 96.3094 24.8633C95.7475 25.0303 94.9641 25.117 93.9559 25.117C92.3313 25.117 90.9089 24.34 89.692 22.786C88.8637 21.7297 88.3178 20.1853 88.0546 18.1561L98.4959 16.631C98.8587 13.4652 98.4734 11.2113 97.34 9.86596C96.2066 8.52065 94.5178 7.84961 92.2767 7.84961C90.0356 7.84961 88.0674 8.34085 86.3721 9.32013C84.6769 10.2994 83.3669 11.7089 82.4454 13.5423C81.5207 15.3788 81.0583 17.5268 81.0583 19.9926C81.0583 21.9544 81.4212 23.6754 82.15 25.1619C82.8788 26.6453 83.9223 27.7883 85.2805 28.5846C86.6386 29.3841 88.2408 29.7822 90.0902 29.7822C91.7437 29.7822 93.2624 29.4387 94.6494 28.7516C96.0365 28.0645 97.3689 26.5072 98.3193 25.3032V23.9387ZM87.8619 14.9454C87.8619 12.7043 88.0353 10.5659 88.3724 9.86596C88.7096 9.16601 89.1558 8.81604 89.7177 8.81604C90.3053 8.81604 90.7387 9.12427 91.0213 9.74074C91.3006 10.3572 91.519 12.929 91.519 14.3835C91.519 15.3628 91.4066 16.0145 91.1818 16.3388C90.9571 16.6599 90.5236 16.8782 89.8783 16.9906L87.9614 17.3406C87.8972 16.5989 87.8619 15.8026 87.8619 14.9454Z"/>
    <path d="M83.1583 9.70847C83.5628 9.27502 84.0188 9.01494 84.5228 8.93147L85.0269 8.84799V8.43701H82.0442H80.1113H77.9665V8.84799L78.5123 8.93147C79.0999 9.01494 79.5494 9.28786 79.8576 9.75021C80.1659 10.2126 80.4324 10.9414 80.3746 11.9335C80.3168 12.9288 79.5494 15.5199 79.0196 17.1734L77.3886 22.7762L73.8535 10.5689C73.8246 10.5144 73.8054 10.463 73.7893 10.4213C73.7733 10.3795 73.7669 10.3314 73.7669 10.2736C73.5999 9.79837 73.5357 9.49014 73.5774 9.34886C73.6192 9.20759 73.8343 9.08237 74.2292 8.97L74.6915 8.84478V8.43701H72.5082H66.1221H64.1475V8.84799L64.5681 8.97321C65.0144 9.11448 65.3515 9.28144 65.5762 9.47729C65.801 9.67315 65.9968 10.0392 66.1638 10.5689L71.667 29.0243H76.4992L80.031 17.1767C80.6186 15.4107 81.463 12.7779 81.8997 11.8115C82.3331 10.8419 82.7537 10.1451 83.1583 9.70847Z"/>
    <path d="M156.883 8.89713C155.846 8.22609 154.741 7.88896 153.563 7.88896C152.526 7.88896 151.511 8.20361 150.516 8.83292C149.556 9.43975 148.695 10.1557 147.931 10.9745V6.25469V0.623047L138.899 3.52235V3.93332L139.529 4.10028C139.837 4.18376 140.055 4.29614 140.181 4.43741C140.306 4.57868 140.37 4.74564 140.37 4.9415V29.6931L146.075 27.6029C146.281 27.8662 146.509 28.1134 146.756 28.3478C147.764 29.2982 149.039 29.7766 150.58 29.7766C152.176 29.7766 153.733 29.3078 155.245 28.3703C156.758 27.4328 157.997 26.0232 158.963 24.1482C159.93 22.2731 160.411 20.0031 160.411 17.3414C160.411 15.2416 160.081 13.4757 159.426 12.0469C158.768 10.6181 157.92 9.56818 156.883 8.89713ZM152.805 27.8116C152.651 28.2868 152.413 28.6175 152.092 28.8005C151.771 28.9836 151.399 29.0735 150.978 29.0735C150.307 29.0735 149.793 28.7781 149.443 28.1905C149.094 27.6029 148.792 26.4471 148.541 24.7261C148.288 23.0019 147.645 18.5775 147.254 14.5448C147.17 13.6779 147.218 13.0037 147.401 12.5285C147.584 12.0533 147.829 11.729 148.137 11.5621C148.445 11.3951 148.795 11.3084 149.187 11.3084C149.858 11.3084 150.355 11.5974 150.68 12.1689C151.001 12.7436 151.283 13.8353 151.521 15.4471C151.758 17.0588 152.436 21.5539 152.914 25.837C152.991 26.6782 152.956 27.3364 152.805 27.8116Z"/>
    <path d="M107.338 28.0011C107.213 27.7924 107.149 27.391 107.149 26.8035V6.25469V0.623047L98.1135 3.52235V3.93333L98.7428 4.10028C99.0511 4.18376 99.2694 4.29614 99.3946 4.43741C99.5198 4.57869 99.584 4.74564 99.584 4.9415V26.8035C99.584 27.391 99.5198 27.7924 99.3946 28.0011C99.2694 28.2098 98.9804 28.3735 98.5341 28.4859L98.0718 28.6111V29.0221H100.258H106.474H108.658V28.6111L108.195 28.4859C107.749 28.3735 107.463 28.2098 107.338 28.0011Z"/>
    <path d="M29.7539 4.92424H29.3269C29.2113 5.29669 29.0797 5.6563 28.9352 5.87141C28.7907 6.08975 28.6334 6.24065 28.4664 6.32734C28.2994 6.41403 28.1164 6.45898 27.9174 6.45898H27.577L28.2095 2.69278C28.2417 2.50655 28.277 2.37812 28.3155 2.3107C28.354 2.24327 28.4215 2.19832 28.5146 2.17585L28.6783 2.12769L28.7265 1.85156H26.3858L26.3377 2.12769L26.4757 2.15979C26.5849 2.18869 26.6491 2.23364 26.6652 2.30107C26.6812 2.36849 26.6748 2.50013 26.6395 2.69599L26.0872 5.96453C26.0551 6.15075 26.0166 6.27918 25.9813 6.3466C25.9428 6.41724 25.8753 6.46219 25.7822 6.48146L25.6185 6.53283L25.5703 6.80895H29.4585L29.7539 4.92424Z"/>
    <path d="M31.382 6.94847C31.7127 6.94847 32.0274 6.87141 32.3292 6.71729C32.631 6.56318 32.9039 6.34806 33.1447 6.07514L33.2025 5.69628C33.042 5.80223 32.8718 5.8825 32.692 5.9435C32.5122 6.00451 32.3516 6.0334 32.2136 6.0334C32.0113 6.0334 31.8411 5.9724 31.7031 5.8536C31.565 5.7316 31.4976 5.4651 31.4976 5.04771C31.4976 4.91928 31.504 4.77479 31.5168 4.61426C31.8668 4.63352 32.2039 4.62389 32.5154 4.57573C32.875 4.52114 33.1704 4.40556 33.4016 4.22897C33.6327 4.05238 33.7483 3.80836 33.7483 3.49692C33.7483 3.27217 33.6552 3.0731 33.4722 2.89972C33.2892 2.72634 32.9777 2.63965 32.5443 2.63965C32.0338 2.63965 31.5875 2.77129 31.2086 3.03778C30.8297 3.30427 30.5376 3.65424 30.3353 4.08769C30.133 4.52114 30.0303 4.9867 30.0303 5.48116C30.0303 5.99167 30.1555 6.36411 30.4091 6.5985C30.6628 6.83288 30.9871 6.94847 31.382 6.94847ZM31.5554 4.21933C31.5939 3.89505 31.6581 3.60608 31.7544 3.34922C31.8476 3.09236 31.9728 2.96714 32.1333 2.96714C32.2039 2.96714 32.265 2.99925 32.3099 3.06668C32.3581 3.13089 32.3805 3.24969 32.3805 3.41986C32.3805 3.65103 32.342 3.83726 32.265 3.97853C32.1879 4.12301 32.0755 4.21933 31.9278 4.27071C31.8219 4.30924 31.6902 4.31245 31.549 4.2996C31.5522 4.27392 31.5522 4.25144 31.5554 4.21933Z"/>
  </g>
</svg>