<svg width="66" height="66" xmlns="http://www.w3.org/2000/svg">
  <g fill="#000000">
    <path d="m 64.50416,36.130421 c -0.67095,-0.995296 -1.47691,-1.772295 -2.41699,-2.330995 -1.49995,-0.895804 -3.14996,-1.4834 -4.70994,-2.250703 -0.88305,-0.433498 -1.831,-0.882994 -2.534,-1.598993 -0.85997,-0.870106 -0.97603,-2.908934 0.24404,-3.535034 1.47392,-0.75773 3.23698,0.19586 4.45392,1.033862 1.50201,1.033868 2.75106,2.353463 3.76306,3.872166 h 0.69599 v -5.002348 c -0.97901,-0.25044 -2.01607,-0.45593 -3.10799,-0.610039 -1.09106,-0.154121 -2.28299,-0.231181 -3.57006,-0.231181 -1.34494,0 -2.65502,0.24402 -3.92702,0.735269 -1.27398,0.491241 -2.33991,1.26824 -3.19394,2.330998 -0.85504,1.066007 -1.282,2.424107 -1.282,4.074398 0,1.428809 0.31499,2.613606 0.94796,3.551102 0.62904,0.937599 1.377,1.672805 2.24705,2.205804 1.39002,0.850794 2.90603,1.460902 4.38892,2.119097 1.11101,0.494399 2.23807,1.2458 2.81305,2.353501 0.57801,1.110901 0.55199,3.178598 -0.86998,3.634503 -1.57702,0.504103 -3.484,-0.356405 -4.743,-1.281103 -1.62698,-1.1976 -2.68707,-2.892796 -3.711,-4.588094 -0.0192,-0.03527 -0.0482,-0.06419 -0.0743,-0.0963 H 49.1699 v 5.673298 c 1.11995,0.308296 2.32397,0.5619 3.61203,0.757799 1.28697,0.195796 2.64593,0.295398 4.07392,0.295398 1.70803,0 3.21407,-0.272899 4.51807,-0.818796 1.303,-0.545798 2.318,-1.371007 3.04698,-2.478701 0.72899,-1.107707 1.09202,-2.472203 1.09202,-4.096902 0,-1.486503 -0.33402,-2.725901 -1.00907,-3.718006 z" />
    <path d="m 21.16418,20.395386 c -1.933,-1.21688 -4.18598,-1.826917 -6.76493,-1.826917 -2.66106,0 -5.05003,0.638937 -7.16301,1.913607 -2.11606,1.27466 -3.776,3.10158 -4.98,5.48395 -3.18205,6.289805 -2.23099,15.758304 4.15499,19.784604 1.933,1.216895 4.18696,1.826896 6.76498,1.826896 2.71604,0 5.13098,-0.629295 7.24702,-1.891099 6.41101,-3.820796 8.22894,-12.7467 5.519,-19.367221 -0.97305,-2.38558 -2.58203,-4.53678 -4.77805,-5.92382 z m -3.14001,23.932837 c -0.33691,0.937602 -0.78292,1.547603 -1.34493,1.827006 -0.56204,0.279301 -1.22004,0.420594 -1.97505,0.420594 -1.03697,0 -1.849,-0.532999 -2.43692,-1.595799 -0.58711,-1.062694 -1.08507,-2.995599 -1.49309,-5.798595 -0.40393,-2.799707 -0.963,-7.147101 -1.467,-13.083763 -0.11191,-1.51226 -0.0638,-2.75161 0.14803,-3.71804 0.20799,-0.96644 0.59404,-1.68243 1.15606,-2.14157 0.55797,-0.46235 1.30291,-0.69352 2.22495,-0.69352 1.09103,0 1.94501,0.56188 2.56196,1.67922 0.61603,1.12055 1.12704,3.08873 1.53505,5.904559 0.40393,2.815816 0.93399,7.140712 1.38299,13.022813 0.142,1.8429 0.0418,3.236402 -0.29205,4.177095 z" />
    <path d="m 44.63227,26.696556 c -1.03704,-0.67104 -2.14204,-1.00817 -3.32002,-1.00817 -1.03706,0 -2.05202,0.31465 -3.04703,0.943959 -0.96003,0.606829 -1.82103,1.322778 -2.58501,2.141586 v -4.719815 -5.631643 l -9.03202,2.899303 v 0.41097 l 0.63001,0.16696 c 0.30806,0.08348 0.52604,0.19586 0.65203,0.33713 0.12498,0.14127 0.189,0.30823 0.189,0.50409 v 24.751596 l 5.70495,-2.090198 c 0.20601,0.263302 0.43403,0.5105 0.68103,0.744897 1.00805,0.950406 2.28299,1.428809 3.82403,1.428809 1.59596,0 3.15295,-0.468801 4.66498,-1.406305 1.51301,-0.937496 2.75203,-2.347097 3.71802,-4.222097 0.967,-1.875103 1.448,-4.145104 1.448,-6.806799 0,-2.099804 -0.33006,-3.865701 -0.98503,-5.294506 -0.65801,-1.4288 -1.50602,-2.478718 -2.54294,-3.149767 z m -4.07802,18.91447 c -0.15402,0.475202 -0.39205,0.805897 -0.71307,0.988903 -0.321,0.183099 -0.69291,0.272998 -1.11401,0.272998 -0.67095,0 -1.18495,-0.295403 -1.53494,-0.882999 -0.34899,-0.587604 -0.65103,-1.743398 -0.90205,-3.464401 -0.25302,-1.724203 -0.89594,-6.148599 -1.28695,-10.181303 -0.0844,-0.866898 -0.0359,-1.541094 0.14695,-2.016297 0.18303,-0.475203 0.42802,-0.799501 0.73604,-0.9664 0.30799,-0.167006 0.65797,-0.253703 1.05001,-0.253703 0.67099,0 1.16794,0.289001 1.49301,0.860507 0.32097,0.574694 0.60296,1.666393 0.84096,3.278199 0.23703,1.611699 0.91498,6.106801 1.39296,10.389896 0.0772,0.841205 0.042,1.499397 -0.10891,1.9746 z" />
  </g>
</svg>